<svg id="그룹_115" data-name="그룹 115" xmlns="http://www.w3.org/2000/svg" width="101.89" height="105.454" viewBox="0 0 101.89 105.454">
  <rect id="사각형_89" data-name="사각형 89" width="90.745" height="63.681" transform="translate(5.574 4.778)" fill="#e2e2e2"/>
  <path id="패스_1007" data-name="패스 1007" d="M62.508,54.147V43.5H58.527v9.313H24.3V43.5H20.316V54.147L7.964,70.973l3.208,2.355L23.315,56.787H59.509L71.652,73.328l3.208-2.355Z" transform="translate(9.533 32.125)" fill="#525c6b"/>
  <rect id="사각형_90" data-name="사각형 90" width="101.888" height="4.776" transform="translate(0)" fill="#7a8e9b"/>
  <rect id="사각형_91" data-name="사각형 91" width="101.888" height="7.164" transform="translate(0.002 68.457)" fill="#7a8e9b"/>
  <path id="패스_1008" data-name="패스 1008" d="M45.477,37.343a22.288,22.288,0,0,0-22.288-22.29v22.29Z" transform="translate(27.756 -1.919)" fill="#ffbd66"/>
  <path id="패스_1009" data-name="패스 1009" d="M28.3,25.2,18.92,45.4A22.251,22.251,0,0,0,50.589,25.2Z" transform="translate(22.646 10.225)" fill="#f87670"/>
  <path id="패스_1010" data-name="패스 1010" d="M35.333,15.054a22.276,22.276,0,0,0-9.381,42.487l9.381-20.2Z" transform="translate(15.614 -1.918)" fill="#59c5ef"/>
  <path id="패스_1011" data-name="패스 1011" d="M43.037,17.661a1.183,1.183,0,0,0-.666.2L29.106,26.754l1.327,1.984L43.4,20.051H54.577v-2.39Z" transform="translate(34.838 1.203)" fill="#525c6b"/>
  <path id="패스_1012" data-name="패스 1012" d="M28.188,28.994,26.8,30.938,42.055,41.846a1.211,1.211,0,0,0,.694.22h12.07V39.678H43.134Z" transform="translate(32.075 14.768)" fill="#525c6b"/>
  <path id="패스_1013" data-name="패스 1013" d="M16.861,32.016H5.314V34.4H17.12a1.189,1.189,0,0,0,.492-.108L30.48,28.461,29.5,26.286Z" transform="translate(6.361 11.526)" fill="#525c6b"/>
  <rect id="사각형_92" data-name="사각형 92" width="12.336" height="2.388" transform="translate(11.675 37.17)" fill="#7a8e9b"/>
  <rect id="사각형_93" data-name="사각형 93" width="12.336" height="2.388" transform="translate(11.675 30.803)" fill="#7a8e9b"/>
  <rect id="사각형_94" data-name="사각형 94" width="11.409" height="2.39" transform="translate(78.007 12.496)" fill="#7a8e9b"/>
  <rect id="사각형_95" data-name="사각형 95" width="12.27" height="2.388" transform="translate(74.624 48.078)" fill="#7a8e9b"/>
  <rect id="사각형_96" data-name="사각형 96" width="12.27" height="2.388" transform="translate(74.624 41.709)" fill="#7a8e9b"/>
</svg>
