<svg id="그룹_123" data-name="그룹 123" xmlns="http://www.w3.org/2000/svg" width="103.395" height="105.453" viewBox="0 0 103.395 105.453">
  <path id="패스_972" data-name="패스 972" d="M559.494,9.6H506.545a8.15,8.15,0,0,0-8.127,8.127v89.2a8.152,8.152,0,0,0,8.127,8.129h52.949a8.153,8.153,0,0,0,8.129-8.129v-89.2A8.151,8.151,0,0,0,559.494,9.6" transform="translate(-498.417 -9.6)" fill="#7a8e9b"/>
  <rect id="사각형_81" data-name="사각형 81" width="69.204" height="72.499" transform="translate(0 16.476)" fill="#fddc85"/>
  <rect id="사각형_82" data-name="사각형 82" width="16.477" height="3.295" transform="translate(26.363 6.59)" fill="#e2e2e2"/>
  <path id="패스_973" data-name="패스 973" d="M508.017,52.728a2.472,2.472,0,1,0,2.472,2.472,2.468,2.468,0,0,0-2.472-2.472" transform="translate(-489.886 42.022)" fill="#e2e2e2"/>
  <path id="패스_974" data-name="패스 974" d="M515.517,52.728a2.472,2.472,0,1,0,2.472,2.472,2.468,2.468,0,0,0-2.472-2.472" transform="translate(-480.911 42.022)" fill="#e2e2e2"/>
  <path id="패스_975" data-name="패스 975" d="M523.017,52.728a2.472,2.472,0,1,0,2.471,2.472,2.468,2.468,0,0,0-2.471-2.472" transform="translate(-471.933 42.022)" fill="#e2e2e2"/>
  <path id="패스_976" data-name="패스 976" d="M526.443,14.92a2.883,2.883,0,1,1-2.883-2.882,2.881,2.881,0,0,1,2.883,2.882" transform="translate(-471.776 -6.682)" fill="#525c6b"/>
  <path id="패스_977" data-name="패스 977" d="M567.61,55.969a8.242,8.242,0,0,1-7.891,5.87H532.435a8.241,8.241,0,0,1-7.891-5.87l-8.124-27.084h59.318Z" transform="translate(-476.872 13.483)" fill="#ffbd66"/>
  <path id="패스_978" data-name="패스 978" d="M580.677,34.613H564.446a14.306,14.306,0,0,0-14.131-12.235h-3.537a14.305,14.305,0,0,0-14.131,12.235H516.417a2.06,2.06,0,1,0,0,4.119h.938l7.687,25.616a10.231,10.231,0,0,0,9.862,7.338h27.284a10.236,10.236,0,0,0,9.864-7.338l7.685-25.616h.94a2.06,2.06,0,0,0,0-4.119m-33.9-8.116h3.537a10.192,10.192,0,0,1,9.968,8.116H536.809a10.193,10.193,0,0,1,9.97-8.116M528.986,63.164l-7.329-24.432H536.8l2.883,28.835H534.9a6.144,6.144,0,0,1-5.918-4.4m14.834,4.4-2.882-28.835h15.22l-2.885,28.835Zm24.287-4.4a6.141,6.141,0,0,1-5.919,4.4h-4.776L560.3,38.732h15.139Z" transform="translate(-479.341 5.695)" fill="#525c6b"/>
  <rect id="사각형_83" data-name="사각형 83" width="18.125" height="4.119" transform="translate(8.823 45.252)" fill="#db5743"/>
  <rect id="사각형_84" data-name="사각형 84" width="18.125" height="4.119" transform="translate(12.118 56.786)" fill="#db5743"/>
  <rect id="사각형_85" data-name="사각형 85" width="18.125" height="4.119" transform="translate(15.414 68.32)" fill="#db5743"/>
</svg>
