<svg id="그룹_122" data-name="그룹 122" xmlns="http://www.w3.org/2000/svg" width="103.469" height="105.454" viewBox="0 0 103.469 105.454">
  <path id="패스_1033" data-name="패스 1033" d="M511.391,25.5V64.311H478.663L460.824,74.937V64.311H449.253V25.5Z" transform="translate(-449.253 30.516)" fill="#db5743"/>
  <path id="패스_1034" data-name="패스 1034" d="M456.778,18.723V57.536h57.527l17.839,10.627V57.536h11.569V18.723Z" transform="translate(-440.245 22.41)" fill="#f87670"/>
  <rect id="사각형_107" data-name="사각형 107" width="9.511" height="31.919" transform="translate(30.721 33.712)" fill="#7a8e9b"/>
  <path id="패스_1035" data-name="패스 1035" d="M513.682,35.507c1.127,0,3.577-1.72,3.577-5.7,0-3.144-2.454-5.732-5.075-5.732H492.677a34.039,34.039,0,0,0,1.081-11.888C493.117,5.016,489.731.18,485.7.02s-5.477.725-5.477.725,1.918,9.451.885,12.654c-2.9,8.986-13.544,20.313-13.544,20.313V65.632h38.97a2.932,2.932,0,0,0,.393-.031,6.344,6.344,0,0,0,4.939-9.394,6.321,6.321,0,0,0,3.3-10.532,6.317,6.317,0,0,0,2.57-5.093c0-3.258-2.221-5.073-4.058-5.075" transform="translate(-427.335 0)" fill="#f1bb6b"/>
  <path id="패스_1036" data-name="패스 1036" d="M468.582,28.832a2.06,2.06,0,1,0-2.059,2.059,2.057,2.057,0,0,0,2.059-2.059" transform="translate(-431.046 32.046)" fill="#e2e2e2"/>
</svg>
