<svg id="그룹_121" data-name="그룹 121" xmlns="http://www.w3.org/2000/svg" width="105.433" height="105.454" viewBox="0 0 105.433 105.454">
  <path id="패스_1027" data-name="패스 1027" d="M454.611,66.212,414.8,26.4a6.473,6.473,0,0,0-9.159,0l-1.892,1.892a6.477,6.477,0,0,0,0,9.159l39.811,39.813a6.474,6.474,0,0,0,9.159,0l1.894-1.892a6.48,6.48,0,0,0,0-9.161" transform="translate(-360.371 16.997)" fill="#3daa9d"/>
  <path id="패스_1028" data-name="패스 1028" d="M465.971,47.111a41.5,41.5,0,1,0-41.5,41.5,41.5,41.5,0,0,0,41.5-41.5" transform="translate(-382.97 -5.613)" fill="#79ccb8"/>
  <path id="패스_1029" data-name="패스 1029" d="M448.425,54.809,430.306,36.693a55.441,55.441,0,0,1-16.268,16.26l18.121,18.12a9.53,9.53,0,0,0,13.48,0l2.786-2.784a9.534,9.534,0,0,0,0-13.48" transform="translate(-345.783 31.588)" fill="#79ccb8"/>
  <path id="패스_1030" data-name="패스 1030" d="M408.419,42.961l21.139-21.139L445.9,38.169l1.476-1.479a29.643,29.643,0,0,0-59.021,3.97c0,.989.053,1.964.147,2.926l10.271-10.271Z" transform="translate(-376.52 0.837)" fill="#e2e2e2"/>
  <path id="패스_1031" data-name="패스 1031" d="M406.432,43.817,396.79,34.17l-6.771,6.764a29.659,29.659,0,0,0,53.263-2.544l-15.71-15.713Z" transform="translate(-374.533 14.813)" fill="#c6c6c6"/>
  <path id="패스_1032" data-name="패스 1032" d="M481.821,10.592H460.576l6.657,6.659L445.824,38.66,429.478,22.313,408.339,43.452,398.7,33.807,388.426,44.078a29.477,29.477,0,0,0,3.5,11.323l6.771-6.764,9.642,9.647,21.139-21.139L445.824,53.49l28.824-28.824,7.173,7.173Z" transform="translate(-376.439 0.347)" fill="#f87670"/>
</svg>
