<svg id="그룹_120" data-name="그룹 120" xmlns="http://www.w3.org/2000/svg" width="80.51" height="105.454" viewBox="0 0 80.51 105.454">
  <path id="패스_979" data-name="패스 979" d="M401.614,8.186a3.285,3.285,0,0,0-3.3-3.269l-65.722.3a3.285,3.285,0,0,0-3.269,3.3l.448,98.579a3.289,3.289,0,0,0,3.3,3.273l65.719-.3a3.289,3.289,0,0,0,3.271-3.3Z" transform="translate(-325.244 -4.917)" fill="#525c6b"/>
  <rect id="사각형_86" data-name="사각형 86" width="16.431" height="3.284" transform="translate(32.029 6.724)" fill="#e2e2e2"/>
  <path id="패스_980" data-name="패스 980" d="M338.089,48.729a2.47,2.47,0,0,0-.723,1.742,2.524,2.524,0,0,0,.723,1.74,2.49,2.49,0,0,0,1.742.725,2.454,2.454,0,0,0,1.74-.725,2.516,2.516,0,0,0,.725-1.74,2.463,2.463,0,0,0-.725-1.742,2.541,2.541,0,0,0-3.482,0" transform="translate(-315.614 46.698)" fill="#e2e2e2"/>
  <path id="패스_981" data-name="패스 981" d="M347.31,47.986a2.465,2.465,0,1,0,0,4.93h.015a2.465,2.465,0,0,0-.015-4.93" transform="translate(-306.662 46.634)" fill="#e2e2e2"/>
  <path id="패스_982" data-name="패스 982" d="M356.53,48.661a2.541,2.541,0,0,0-3.482,0,2.433,2.433,0,0,0-.725,1.744,2.475,2.475,0,0,0,2.465,2.463,2.454,2.454,0,0,0,1.742-.725,2.532,2.532,0,0,0,.723-1.738,2.48,2.48,0,0,0-.723-1.744" transform="translate(-297.711 46.616)" fill="#e2e2e2"/>
  <path id="패스_983" data-name="패스 983" d="M357.389,10.026a2.465,2.465,0,1,1-2.476-2.456,2.462,2.462,0,0,1,2.476,2.456" transform="translate(-297.548 -1.741)" fill="#fff"/>
  <rect id="사각형_87" data-name="사각형 87" width="52.248" height="72.532" transform="translate(14.324 16.461)" fill="#fff"/>
  <path id="패스_984" data-name="패스 984" d="M336.624,20.591c0,4.781,4.5,8.656,10.06,8.656s10.062-3.875,10.062-8.656Z" transform="translate(-316.502 13.844)" fill="#fddc85"/>
  <path id="패스_985" data-name="패스 985" d="M345.783,20.591c0,4.781,4.5,8.656,10.06,8.656S365.9,25.372,365.9,20.591Z" transform="translate(-305.539 13.844)" fill="#ffbd66"/>
  <path id="패스_986" data-name="패스 986" d="M354.952,20.591c0,4.781,4.5,8.656,10.062,8.656s10.06-3.875,10.06-8.656Z" transform="translate(-294.564 13.844)" fill="#fddc85"/>
  <path id="패스_987" data-name="패스 987" d="M327.465,20.591c0,4.781,4.5,8.656,10.062,8.656s10.06-3.875,10.06-8.656Z" transform="translate(-327.465 13.844)" fill="#ffbd66"/>
  <path id="패스_988" data-name="패스 988" d="M356.746,12.41H343.659l-7.035,17.973h20.122Z" transform="translate(-316.502 4.052)" fill="#ffbd66"/>
  <path id="패스_989" data-name="패스 989" d="M354.622,12.41H341.4L327.465,30.383h20.122Z" transform="translate(-327.465 4.052)" fill="#fddc85"/>
  <path id="패스_990" data-name="패스 990" d="M345.788,12.41h13.087L365.9,30.383H345.788Z" transform="translate(-305.533 4.052)" fill="#fddc85"/>
  <path id="패스_991" data-name="패스 991" d="M351.745,12.41h13.232l13.935,17.973H358.767Z" transform="translate(-298.403 4.052)" fill="#ffbd66"/>
  <path id="패스_992" data-name="패스 992" d="M373.7,44.505a18.073,18.073,0,1,1-18.074-18.074A18.073,18.073,0,0,1,373.7,44.505" transform="translate(-315.387 20.834)" fill="#ffbd66"/>
  <path id="패스_993" data-name="패스 993" d="M349.441,40.313c-2.307,0-3.427-.969-3.427-2.966a3.464,3.464,0,0,1,6.854,0,1.643,1.643,0,1,0,3.287,0,6.348,6.348,0,0,0-5.071-6.037v-1.1a1.642,1.642,0,1,0-3.284,0v1.1a6.348,6.348,0,0,0-5.073,6.037c0,3.8,2.636,6.25,6.714,6.25,2.3,0,3.427.969,3.427,2.966a3.464,3.464,0,0,1-6.854,0,1.643,1.643,0,1,0-3.287,0A6.348,6.348,0,0,0,347.8,52.6v1.1a1.642,1.642,0,0,0,3.284,0V52.6a6.348,6.348,0,0,0,5.071-6.037c0-3.8-2.634-6.25-6.714-6.25" transform="translate(-309.197 23.385)" fill="#525c6b"/>
</svg>
