<svg id="그룹_119" data-name="그룹 119" xmlns="http://www.w3.org/2000/svg" width="85.809" height="105.456" viewBox="0 0 85.809 105.456">
  <path id="패스_959" data-name="패스 959" d="M295.441,99.694h24.246a13.132,13.132,0,0,1,13.127-12.933V17.777A13.14,13.14,0,0,1,319.675,4.639H295.45a13.136,13.136,0,0,1-13.136,13.138V86.761a13.132,13.132,0,0,1,13.127,12.933" transform="translate(-247.005 -4.639)" fill="#79ccb8"/>
  <path id="패스_960" data-name="패스 960" d="M299.325,54.952h10.928a2.2,2.2,0,0,0,2.2-2.2V42.019a13.132,13.132,0,0,0-13.127,12.933" transform="translate(-226.643 40.103)" fill="#3daa9d"/>
  <path id="패스_961" data-name="패스 961" d="M284.511,54.952h10.93a13.132,13.132,0,0,0-13.127-12.933V52.755a2.2,2.2,0,0,0,2.2,2.2" transform="translate(-247.005 40.103)" fill="#3daa9d"/>
  <path id="패스_962" data-name="패스 962" d="M312.457,17.777V6.836a2.2,2.2,0,0,0-2.2-2.2H299.321a13.138,13.138,0,0,0,13.136,13.138" transform="translate(-226.648 -4.639)" fill="#3daa9d"/>
  <path id="패스_963" data-name="패스 963" d="M295.45,4.639H284.511a2.2,2.2,0,0,0-2.2,2.2V17.777A13.138,13.138,0,0,0,295.45,4.639" transform="translate(-247.005 -4.639)" fill="#3daa9d"/>
  <path id="패스_964" data-name="패스 964" d="M297.4,36.963a6.591,6.591,0,1,0,6.591,6.591,6.59,6.59,0,0,0-6.591-6.591" transform="translate(-236.839 34.051)" fill="#ffbd66"/>
  <path id="패스_965" data-name="패스 965" d="M297.4,9.583a6.591,6.591,0,1,0,6.591,6.591A6.592,6.592,0,0,0,297.4,9.583" transform="translate(-236.839 1.279)" fill="#ffbd66"/>
  <path id="패스_966" data-name="패스 966" d="M301.887,45.363c-8.19,0-14.829-5.532-14.829-12.358s6.639-12.358,14.829-12.358S316.716,26.183,316.716,33s-6.639,12.358-14.829,12.358" transform="translate(-241.328 14.522)" fill="#fddc85"/>
  <path id="패스_967" data-name="패스 967" d="M303.008,48.545c-9.313,0-16.888-6.466-16.888-14.419S293.7,19.71,303.008,19.71,319.9,26.178,319.9,34.126s-7.575,14.419-16.888,14.419m0-24.716c-7.041,0-12.769,4.622-12.769,10.3s5.727,10.3,12.769,10.3,12.769-4.618,12.769-10.3-5.727-10.3-12.769-10.3" transform="translate(-242.449 13.4)" fill="#3daa9d"/>
  <path id="패스_968" data-name="패스 968" d="M316.045,17H272.879a6.655,6.655,0,0,0-6.637,6.635v65.03a6.657,6.657,0,0,0,6.637,6.637h43.166a6.657,6.657,0,0,0,6.637-6.637V23.634A6.655,6.655,0,0,0,316.045,17" transform="translate(-266.242 10.155)" fill="#c6c6c6"/>
  <rect id="사각형_78" data-name="사각형 78" width="13.182" height="78.301" transform="translate(29.683 27.154)" fill="#525c6b"/>
  <path id="패스_969" data-name="패스 969" d="M275.711,36.22a1.628,1.628,0,0,1-1.648-1.648,1.658,1.658,0,0,1,.477-1.169,1.7,1.7,0,0,1,2.324,0,1.676,1.676,0,0,1,.494,1.169,1.632,1.632,0,0,1-1.648,1.648" transform="translate(-256.881 29.24)" fill="#525c6b"/>
  <path id="패스_970" data-name="패스 970" d="M274.063,37.786a1.648,1.648,0,1,1,1.648,1.648,1.651,1.651,0,0,1-1.648-1.648" transform="translate(-256.881 33.064)" fill="#525c6b"/>
  <path id="패스_971" data-name="패스 971" d="M275.711,42.62a1.628,1.628,0,0,1-1.648-1.648,1.592,1.592,0,0,1,.477-1.151,1.648,1.648,0,1,1,2.34,2.322,1.649,1.649,0,0,1-1.169.477" transform="translate(-256.881 36.912)" fill="#525c6b"/>
  <rect id="사각형_79" data-name="사각형 79" width="3.295" height="19.92" transform="translate(17.18 38.165)" fill="#525c6b"/>
  <rect id="사각형_80" data-name="사각형 80" width="3.295" height="28.198" transform="translate(7.856 38.165)" fill="#525c6b"/>
</svg>
