<svg id="그룹_118" data-name="그룹 118" xmlns="http://www.w3.org/2000/svg" width="105.454" height="102.518" viewBox="0 0 105.454 102.518">
  <rect id="사각형_97" data-name="사각형 97" width="11.185" height="7.99" transform="translate(8.739 92.93)" fill="#525c6b"/>
  <rect id="사각형_98" data-name="사각형 98" width="11.185" height="7.99" transform="translate(47.131 92.93)" fill="#525c6b"/>
  <rect id="사각형_99" data-name="사각형 99" width="11.185" height="7.99" transform="translate(85.529 92.93)" fill="#525c6b"/>
  <path id="패스_1020" data-name="패스 1020" d="M206.376,43.843a9.7,9.7,0,0,1-1.841-19.232A8.221,8.221,0,0,1,217.22,14.474a14.826,14.826,0,1,1,29.27,4.651,12.22,12.22,0,0,1,2.57-.277,12.5,12.5,0,0,1,0,24.995Z" transform="translate(-195.066 -1.563)" fill="#c6c6c6"/>
  <path id="패스_1021" data-name="패스 1021" d="M268.805,52.69a11.734,11.734,0,0,0,2.225-23.257,9.941,9.941,0,0,0-15.339-12.257A17.928,17.928,0,1,0,220.3,22.8a14.919,14.919,0,0,0-3.107-.336,15.113,15.113,0,1,0,0,30.226Z" transform="translate(-188.59 -1.563)" fill="#e2e2e2"/>
  <rect id="사각형_100" data-name="사각형 100" width="25.471" height="19.173" transform="translate(39.991 73.757)" fill="#f87670"/>
  <rect id="사각형_101" data-name="사각형 101" width="25.469" height="19.173" transform="translate(1.599 73.757)" fill="#59c5ef"/>
  <rect id="사각형_102" data-name="사각형 102" width="25.469" height="19.173" transform="translate(78.387 73.757)" fill="#fddc85"/>
  <rect id="사각형_103" data-name="사각형 103" width="17.576" height="3.197" transform="translate(43.935 99.321)" fill="#7a8e9b"/>
  <rect id="사각형_104" data-name="사각형 104" width="17.576" height="3.197" transform="translate(82.333 99.321)" fill="#7a8e9b"/>
  <path id="패스_1022" data-name="패스 1022" d="M213.413,56.779h28.666V34.407H213.413Zm3.194-19.173h22.275V53.582H216.607Z" transform="translate(-175.019 37.75)" fill="#7a8e9b"/>
  <path id="패스_1023" data-name="패스 1023" d="M195.937,56.779H224.6V34.407H195.937Zm3.2-19.173h22.275V53.582H199.134Z" transform="translate(-195.937 37.75)" fill="#7a8e9b"/>
  <path id="패스_1024" data-name="패스 1024" d="M230.889,56.779h28.666V34.407H230.889Zm25.471-3.2H234.086V37.6h22.275Z" transform="translate(-154.101 37.75)" fill="#7a8e9b"/>
  <rect id="사각형_105" data-name="사각형 105" width="17.578" height="3.197" transform="translate(5.545 99.321)" fill="#7a8e9b"/>
  <rect id="사각형_106" data-name="사각형 106" width="3.194" height="38.743" transform="translate(51.127 30.216)" fill="#db5743"/>
  <path id="패스_1025" data-name="패스 1025" d="M204.93,54.06h-3.2V45.075h25.66V15.317h3.194V48.271H204.93Z" transform="translate(-188.999 14.9)" fill="#2ba0bf"/>
  <path id="패스_1026" data-name="패스 1026" d="M253.9,54.06H250.71V48.271h-25.66V15.317h3.194V45.075H253.9Z" transform="translate(-161.091 14.9)" fill="#ffbd66"/>
</svg>
