<svg xmlns="http://www.w3.org/2000/svg" width="104.588" height="105.453" viewBox="0 0 104.588 105.453">
  <g id="그룹_117" data-name="그룹 117" transform="translate(0)">
    <path id="패스_994" data-name="패스 994" d="M214.112,9.751H136.795a5.336,5.336,0,0,0-5.339,5.341V69.519H219.45V15.092a5.338,5.338,0,0,0-5.339-5.341" transform="translate(-123.158 11.173)" fill="#7a8e9b"/>
    <rect id="사각형_88" data-name="사각형 88" width="70.852" height="26.862" transform="translate(16.859 45.757)" fill="#fff"/>
    <path id="패스_995" data-name="패스 995" d="M127.679,43.765v4.86a4.947,4.947,0,0,0,4.945,4.943h94.7a4.946,4.946,0,0,0,4.943-4.943v-4.86Z" transform="translate(-127.679 51.886)" fill="#7a8e9b"/>
    <path id="패스_996" data-name="패스 996" d="M127.679,51.915H232.265l-8.294-14.959h-88Z" transform="translate(-127.678 43.736)" fill="#c6c6c6"/>
    <path id="패스_997" data-name="패스 997" d="M142.479,20.489a9.894,9.894,0,1,0,19.768,0Z" transform="translate(-109.964 24.026)" fill="#f87670"/>
    <path id="패스_998" data-name="패스 998" d="M151.477,20.489a9.893,9.893,0,1,0,19.766,0Z" transform="translate(-99.194 24.026)" fill="#db5743"/>
    <path id="패스_999" data-name="패스 999" d="M160.485,20.489a9.894,9.894,0,1,0,19.768,0Z" transform="translate(-88.412 24.026)" fill="#f87670"/>
    <path id="패스_1000" data-name="패스 1000" d="M133.482,20.489a9.893,9.893,0,1,0,19.766,0Z" transform="translate(-120.733 24.026)" fill="#db5743"/>
    <path id="패스_1001" data-name="패스 1001" d="M162.249,13.343H149.39l-6.912,15.7h19.77Z" transform="translate(-109.964 15.472)" fill="#db5743"/>
    <path id="패스_1002" data-name="패스 1002" d="M160.16,13.343H147.169l-13.687,15.7h19.766Z" transform="translate(-120.733 15.472)" fill="#f87670"/>
    <path id="패스_1003" data-name="패스 1003" d="M151.482,13.343h12.857l6.9,15.7H151.482Z" transform="translate(-99.188 15.472)" fill="#f87670"/>
    <path id="패스_1004" data-name="패스 1004" d="M157.334,13.343h13l13.689,15.7h-19.79Z" transform="translate(-92.183 15.472)" fill="#db5743"/>
    <path id="패스_1005" data-name="패스 1005" d="M159.774.227a15.222,15.222,0,0,0-15.22,15.223c0,12.118,15.22,29.292,15.22,29.292s15.22-17.174,15.22-29.292A15.222,15.222,0,0,0,159.774.227" transform="translate(-107.48 -0.227)" fill="#59c5ef"/>
    <path id="패스_1006" data-name="패스 1006" d="M162.324,11.043a7.018,7.018,0,1,1-7.017-7.017,7.02,7.02,0,0,1,7.017,7.017" transform="translate(-103.011 4.32)" fill="#fff"/>
  </g>
</svg>
