<svg xmlns="http://www.w3.org/2000/svg" width="93" height="20.598" viewBox="0 0 93 20.598">
  <g id="그룹_259" data-name="그룹 259" transform="translate(-2082 323.22)">
    <g id="그룹_235" data-name="그룹 235" transform="translate(2082 -323.22)">
      <path id="패스_1156" data-name="패스 1156" d="M2129.146-312.921a5.551,5.551,0,0,0,2.669-4.771,5.472,5.472,0,0,0-5.015-5.513h0l-3.1-.015-1.417,2.272-3.383,5.424h2.88l3.551-5.424c2.3,0,4.166,1.494,4.166,3.335s-1.867,3.335-4.17,3.335h-7.29l3.079.015-1.519,2.441h5.73c2.3,0,4.17,1.534,4.17,3.427s-1.867,3.427-4.17,3.427h-8.164c-.122,0-.242-.005-.362-.014l-1.472,2.33a5.271,5.271,0,0,0,.545.029h10.556a5.462,5.462,0,0,0,5.393-5.528A5.551,5.551,0,0,0,2129.146-312.921Z" transform="translate(-2110.399 323.22)" fill="#888"/>
      <path id="패스_1157" data-name="패스 1157" d="M2089.182-320.948h5.12l1.417-2.272h-7.826a5.462,5.462,0,0,0-5.393,5.528,5.566,5.566,0,0,0,1.938,4.24c.034.029.068.059.1.087a9.008,9.008,0,0,0,4.025,1.513l-.044.074-3.014,5.007-1.486,2.468-1.012,1.681h2.88l.2-.318,1.437-2.309,4.09-6.572,1.519-2.441-3.079-.015h-.874c-2.3,0-4.171-1.493-4.171-3.335S2086.878-320.948,2089.182-320.948Z" transform="translate(-2082.426 323.22)" fill="#888" fill-rule="evenodd"/>
      <circle id="타원_1" data-name="타원 1" cx="1.071" cy="1.071" r="1.071" transform="translate(0 12.597)" fill="#888"/>
    </g>
    <path id="패스_1158" data-name="패스 1158" d="M2250.085-301.778c-.117,0-.175-.042-.175-.126v-9.215a.156.156,0,0,1,.175-.177h2.525a4.794,4.794,0,0,1,2.591.593,2.008,2.008,0,0,1,.927,1.818,2.28,2.28,0,0,1-.358,1.294,2.385,2.385,0,0,1-1.015.84,2.659,2.659,0,0,1,.737.366,2.342,2.342,0,0,1,.526.518,2.13,2.13,0,0,1,.314.612,2.1,2.1,0,0,1,.1.637,2.377,2.377,0,0,1-1.08,2.133,5.718,5.718,0,0,1-3.124.707Zm1.459-4.254v2.9h.715a3.653,3.653,0,0,0,1.964-.385,1.212,1.212,0,0,0,.562-1.054,1.213,1.213,0,0,0-.613-1.073,4.049,4.049,0,0,0-2.073-.391Zm.03-3.926v2.563h.788a2.662,2.662,0,0,0,1.635-.385,1.212,1.212,0,0,0,.482-.991,1.036,1.036,0,0,0-.424-.858,2.415,2.415,0,0,0-1.445-.328Z" transform="translate(-143.581 -10.163)" fill="#888"/>
    <path id="패스_1159" data-name="패스 1159" d="M2367.519-301.136H2366.3c-.116,0-.174-.054-.174-.162v-9.082q0-.162.174-.162h1.218c.115,0,.174.054.174.162v9.082C2367.692-301.19,2367.634-301.136,2367.519-301.136Z" transform="translate(-242.916 -10.805)" fill="#888"/>
    <path id="패스_1160" data-name="패스 1160" d="M2453.81-300.217a.163.163,0,0,1-.114-.042.131.131,0,0,1-.047-.1v-8.734a.131.131,0,0,1,.047-.1.164.164,0,0,1,.114-.042H2455a.165.165,0,0,1,.114.042.132.132,0,0,1,.047.1v3.589h4.15v-3.589a.131.131,0,0,1,.047-.1.165.165,0,0,1,.114-.042h1.192a.165.165,0,0,1,.114.042.132.132,0,0,1,.047.1v8.734a.132.132,0,0,1-.047.1.165.165,0,0,1-.114.042h-1.192q-.16,0-.16-.144v-3.888h-4.15v3.888q0,.144-.161.144Z" transform="translate(-317.808 -11.917)" fill="#888"/>
    <path id="패스_1161" data-name="패스 1161" d="M2515.712-307.228v7.621c0,.1-.054.144-.161.144h-1.192q-.16,0-.161-.144v-7.621h-2.6a.164.164,0,0,1-.114-.042.144.144,0,0,1-.047-.114v-.957a.131.131,0,0,1,.047-.1.165.165,0,0,1,.114-.042h6.72a.166.166,0,0,1,.114.042.132.132,0,0,1,.047.1v.957a.14.14,0,0,1-.161.156Z" transform="translate(-367.225 -12.56)" fill="#888"/>
    <path id="패스_1162" data-name="패스 1162" d="M2596.561-307.216v2.477h3.485c.121,0,.183.048.183.144v.969c0,.1-.062.144-.183.144h-3.485v3.84q0,.18-.2.18h-1.152q-.211,0-.211-.18v-8.626a.209.209,0,0,1,.056-.174.28.28,0,0,1,.168-.042h5.017a.178.178,0,0,1,.12.042.129.129,0,0,1,.049.1v.957a.149.149,0,0,1-.169.167Z" transform="translate(-438.906 -12.56)" fill="#888"/>
    <path id="패스_1163" data-name="패스 1163" d="M2647.383-299.463h-1.218q-.174,0-.174-.156v-8.71q0-.155.174-.155h1.218c.115,0,.174.052.174.155v8.71C2647.557-299.515,2647.5-299.463,2647.383-299.463Z" transform="translate(-482.364 -12.56)" fill="#888"/>
    <path id="패스_1164" data-name="패스 1164" d="M2671.98-300.217a.22.22,0,0,1-.2-.084l-2.557-3.438-2.57,3.438a.221.221,0,0,1-.2.084h-1.432q-.16,0-.04-.156l3.373-4.511-3.132-4.211a.088.088,0,0,1-.013-.1c.018-.028.062-.042.134-.042h1.352c.1,0,.16.024.187.072l2.329,3.127,2.343-3.127c.027-.048.089-.072.188-.072h1.352c.072,0,.116.014.134.042a.089.089,0,0,1-.013.1l-3.132,4.211,3.373,4.511q.121.155-.04.156Z" transform="translate(-498.505 -11.917)" fill="#888"/>
    <path id="패스_1165" data-name="패스 1165" d="M2314.07-301.247h-1.484l-2.43-4.94h.915a1.476,1.476,0,0,0,1-.41,1.367,1.367,0,0,0,.46-1.073,1.429,1.429,0,0,0-.132-.617,1.808,1.808,0,0,0-.334-.488,1.679,1.679,0,0,0-.473-.306,1.322,1.322,0,0,0-.523-.111h-1.953v7.93h-1.537v-9.282h3.7a2.552,2.552,0,0,1,1.008.215,2.922,2.922,0,0,1,.895.592,3,3,0,0,1,.636.9,2.717,2.717,0,0,1,.246,1.163,2.724,2.724,0,0,1-.208,1.04,2.925,2.925,0,0,1-.573.9,2.755,2.755,0,0,1-.844.65l1.827,3.835Z" transform="translate(-192.898 -10.805)" fill="#888"/>
    <path id="패스_1166" data-name="패스 1166" d="M2396.792-302.438v-3.248a.438.438,0,0,0-.047-.245c-.032-.041-.108-.061-.227-.061h-3.05a.168.168,0,0,0-.113.049.16.16,0,0,0-.054.123v.98a.143.143,0,0,0,.042.1.149.149,0,0,0,.113.043h1.966v1.669c-.371.894-1.616.971-1.786.978a3.389,3.389,0,0,1-1.014-.215,2.718,2.718,0,0,1-1.007-.674,3.074,3.074,0,0,1-.655-1.1,4.481,4.481,0,0,1-.232-1.5,4.125,4.125,0,0,1,.232-1.421,3.279,3.279,0,0,1,.649-1.1,2.86,2.86,0,0,1,1-.71,2.375,2.375,0,0,1,1.419-.249,1.958,1.958,0,0,1,1.255,1.005l1.182-.739a1.135,1.135,0,0,0-.144-.348,3.014,3.014,0,0,0-2.564-1.216h-.007a4.8,4.8,0,0,0-1.737.352,4.139,4.139,0,0,0-1.442.992,4.424,4.424,0,0,0-.917,1.513,5.523,5.523,0,0,0-.322,1.917,5.605,5.605,0,0,0,.346,2.033,4.311,4.311,0,0,0,.953,1.507,4.017,4.017,0,0,0,1.448.931,5.087,5.087,0,0,0,1.749.317A3.371,3.371,0,0,0,2396.792-302.438Z" transform="translate(-262.813 -11.001)" fill="#888"/>
    <g id="그룹_236" data-name="그룹 236" transform="translate(2106.094 -308.53)">
      <path id="패스_1167" data-name="패스 1167" d="M2251.688-221.781a3.31,3.31,0,0,0-.2,1.172,3.386,3.386,0,0,0,.178,1.118,3.337,3.337,0,0,0,.578.993H2252a2.905,2.905,0,0,1-.624-.971,3.068,3.068,0,0,1-.209-1.141,3.08,3.08,0,0,1,.209-1.136,2.954,2.954,0,0,1,.624-.975h.24A3.455,3.455,0,0,0,2251.688-221.781Z" transform="translate(-2251.167 222.72)" fill="#888"/>
      <path id="패스_1168" data-name="패스 1168" d="M2267.123-219.226v.246h-1.983v1.624h-.342v-1.624h-1.988v-.246Zm-.521-2.04v.246h-1.477a.952.952,0,0,0,.5.689,2.832,2.832,0,0,0,1.17.412l-.189.264a3.378,3.378,0,0,1-1.022-.389,1.7,1.7,0,0,1-.613-.564,1.78,1.78,0,0,1-.623.555,3.669,3.669,0,0,1-1.012.4l-.189-.264a2.824,2.824,0,0,0,1.124-.4,1.031,1.031,0,0,0,.542-.7h-1.477v-.246Z" transform="translate(-2261.091 221.481)" fill="#888"/>
      <path id="패스_1169" data-name="패스 1169" d="M2296.469-222.72a3.032,3.032,0,0,1,.613.975,3.052,3.052,0,0,1,.209,1.136,3.063,3.063,0,0,1-.209,1.141,2.98,2.98,0,0,1-.613.971h-.255a3.316,3.316,0,0,0,.572-.993,3.244,3.244,0,0,0,.189-1.118,3.2,3.2,0,0,0-.189-1.118,3.393,3.393,0,0,0-.572-.993Z" transform="translate(-2289.561 222.72)" fill="#888"/>
      <path id="패스_1170" data-name="패스 1170" d="M2332.938-217.013v.246h-4.106v-.246Zm-3.181-2.876c.006.006,0,.019-.015.04a.25.25,0,0,0-.015.022.087.087,0,0,0,0,.027v.456h2.325v-.559h.258a.178.178,0,0,1,.093.013c.006.006,0,.018-.005.036a.121.121,0,0,1-.014.022.123.123,0,0,0,0,.031v1.637H2329.4v-1.74h.233A.323.323,0,0,1,2329.757-219.89Zm-.034.774v.72h2.325v-.72Z" transform="translate(-2317.361 220.319)" fill="#888"/>
      <path id="패스_1171" data-name="패스 1171" d="M2375.874-221.611v1.4h-1.858v1.145q.71,0,1.3-.049a6.725,6.725,0,0,0,1.09-.157l.078.268a10.14,10.14,0,0,1-1.192.143q-.662.045-1.6.054v-1.651h1.844v-.9H2373.7v-.246Zm1.251-.3c.013.009.009.03-.01.063a.136.136,0,0,0-.019.04.187.187,0,0,0-.005.045v1.548h.769v.25h-.769v2.04h-.326v-4.008h.2A.3.3,0,0,1,2377.125-221.911Z" transform="translate(-2355.598 222.049)" fill="#888"/>
      <path id="패스_1172" data-name="패스 1172" d="M2417.953-221.222a1.572,1.572,0,0,1,.292.971,1.552,1.552,0,0,1-.292.966,1.035,1.035,0,0,1-.876.429,1.036,1.036,0,0,1-.876-.429,1.573,1.573,0,0,1-.287-.966,1.593,1.593,0,0,1,.287-.971,1.04,1.04,0,0,1,.876-.425A1.047,1.047,0,0,1,2417.953-221.222Zm-1.5.179a1.42,1.42,0,0,0-.2.792,1.411,1.411,0,0,0,.2.787.7.7,0,0,0,.622.349.71.71,0,0,0,.623-.349,1.39,1.39,0,0,0,.209-.787,1.4,1.4,0,0,0-.209-.792.712.712,0,0,0-.623-.344A.7.7,0,0,0,2416.454-221.043Zm3.06-.872c.01.006,0,.024-.014.054s-.018.031-.024.04a.148.148,0,0,0-.01.054v3.842h-.326v-4.008h.229A.31.31,0,0,1,2419.514-221.915Z" transform="translate(-2391.581 222.049)" fill="#888"/>
      <path id="패스_1173" data-name="패스 1173" d="M2463.433-217.1v.251h-4.106v-.251Zm-.564-2.9v.246H2460.2v.573h2.671v.246H2460.2v.613h2.763v.246h-3.07v-1.923Z" transform="translate(-2428.582 220.397)" fill="#888"/>
      <path id="패스_1174" data-name="패스 1174" d="M2503.34-221.325c.01.006.006.022-.01.049s-.011.027-.014.036a.083.083,0,0,0-.005.049l.122.989c.055,0,.139,0,.253-.009l.307-.018.229-.009.165-1.127.248.027q.117.018.132.04c.006.012,0,.031-.025.058l-.029.036a.135.135,0,0,0-.02.049l-.16.9.16-.018.662-.063.024.246q-.443.049-1.2.089-.433.023-1.2.058l-.316.013a.324.324,0,0,0-.112.018.366.366,0,0,0-.063.027.092.092,0,0,1-.053.013c-.013-.006-.028-.03-.044-.072l-.078-.246h.375c.168,0,.311,0,.428,0l-.151-1.154h.234A.337.337,0,0,1,2503.34-221.325Zm1.8-.434v.25h-2.549v-.25Zm.846,2.4v1.432h-.311v-1.185H2502.9v-.246Zm-.068-2.576c.062,0,.1.006.107.018s0,.028-.015.058a.175.175,0,0,0-.02.027.14.14,0,0,0,0,.036v2.093h-.326v-2.232Z" transform="translate(-2465.219 222.049)" fill="#888"/>
      <path id="패스_1175" data-name="패스 1175" d="M2550.656-217.736v.246h-4.106v-.246Zm-3.917-1.279a3.091,3.091,0,0,0,1.148-.707,1.828,1.828,0,0,0,.608-1.029h.268c.068,0,.105.007.112.022s0,.039-.029.081a.364.364,0,0,0-.039.072.23.23,0,0,0-.03.089q-.019.085.117.282a2.754,2.754,0,0,0,.374.421,3.794,3.794,0,0,0,.55.429,2.467,2.467,0,0,0,.647.3l-.17.264a4.768,4.768,0,0,1-1.075-.68,2.374,2.374,0,0,1-.618-.711,2.2,2.2,0,0,1-.618.729,5.13,5.13,0,0,1-1.041.693Z" transform="translate(-2502.922 221.042)" fill="#888"/>
    </g>
  </g>
</svg>
