<svg xmlns="http://www.w3.org/2000/svg" width="55.502" height="34.891" viewBox="0 0 55.502 34.891">
  <g id="그룹_261" data-name="그룹 261" transform="translate(-1246.411 -36.302)">
    <g id="그룹_242" data-name="그룹 242" transform="translate(1264.396 36.302)">
      <path id="패스_1205" data-name="패스 1205" d="M1347.972,60.833a5.668,5.668,0,0,1,2.505,3.262,5.28,5.28,0,0,1-4.948,6.537c-1.092.021-2.185.012-3.277.007a3.151,3.151,0,0,1-3.24-3.057c-.051-4.13-.017-8.262-.024-12.393,0-.3.08-.46.4-.43a.392.392,0,0,0,.06,0c1.562-.085,1.562-.085,1.562,1.467q0,5.482,0,10.963c0,.987.451,1.484,1.431,1.493a29.889,29.889,0,0,0,3.152-.071,3.267,3.267,0,0,0,3.046-3.289,3.347,3.347,0,0,0-3.095-3.267c-.772-.093-1.129-.424-1.11-1.048a.976.976,0,0,1,.872-.972,3.295,3.295,0,0,0-.632-6.546c-1.945-.056-3.893-.026-5.839-.007-.86.009-1.314.562-1.316,1.557q-.012,5.422-.008,10.844c0,1.211.01,2.423,0,3.634-.009.767-.4,1.164-1.069,1.126a.931.931,0,0,1-.906-1.037c-.009-1.072,0-2.145,0-3.217V54.948a3.182,3.182,0,0,1,3.226-3.444c2.141-.062,4.293-.066,6.429.076a5.18,5.18,0,0,1,3.2,8.975A3.325,3.325,0,0,1,1347.972,60.833Z" transform="translate(-1335.529 -48.403)" fill="#888" fill-rule="evenodd"/>
      <path id="패스_1206" data-name="패스 1206" d="M1367.919,36.528a23.958,23.958,0,0,0-2.5-.226h-7.33c-.922.029-1.509.057-1.509.057a3.23,3.23,0,0,0-1.893,1.732h.793q5.361,0,10.722,0c1.234,0,1.654.415,1.655,1.627q0,2.323,0,4.646,0,5.391,0,10.782c0,1.027-.413,1.438-1.44,1.476a2.908,2.908,0,0,0-.3.012.993.993,0,0,0-.917.993.982.982,0,0,0,1.029.864,3.226,3.226,0,0,0,3.533-3.445c.032-5.1.013-10.206.009-15.309C1369.775,38.314,1369.37,36.759,1367.919,36.528Z" transform="translate(-1350.823 -36.302)" fill="#888" fill-rule="evenodd"/>
    </g>
    <g id="그룹_243" data-name="그룹 243" transform="translate(1246.411 61.45)">
      <path id="패스_1207" data-name="패스 1207" d="M1246.411,170.28v-7.692h2.944c1.848,0,2.638.726,2.727,1.824a1.694,1.694,0,0,1-.86,1.721,2.118,2.118,0,0,1,1.047,2.156c-.128,1.275-.948,1.99-2.549,1.99Zm1.719-6.064v1.265h1.541c.435-.031.692-.259.692-.643s-.267-.622-.751-.622Zm0,2.83v1.607h1.522c.692.01.889-.353.889-.809,0-.425-.257-.8-.968-.8Z" transform="translate(-1246.411 -162.251)" fill="#888"/>
      <path id="패스_1208" data-name="패스 1208" d="M1287,173.435v5.5h-1.877v-.32a2.46,2.46,0,0,1-1.255.45h-.139a1.9,1.9,0,0,1-2.071-2.171v-3.461h1.877v2.711c0,1.01.322,1.241.751,1.23a1.091,1.091,0,0,0,.837-.34v-3.6Z" transform="translate(-1274.545 -170.909)" fill="#888"/>
      <path id="패스_1209" data-name="패스 1209" d="M1350.754,169.025a2.475,2.475,0,0,1-2.608-2.8c.03-1.881,1.113-2.951,2.578-2.881a2.176,2.176,0,0,1,1.5.61v-3.037h1.725v8.029h-1.725v-.49A2.071,2.071,0,0,1,1350.754,169.025Zm.351-1.531a1.112,1.112,0,0,0,1.063-1.171c0-.88-.511-1.451-1.2-1.451a1.151,1.151,0,0,0-1.1,1.3C1349.861,167.184,1350.483,167.534,1351.105,167.494Z" transform="translate(-1327.615 -160.916)" fill="#888"/>
      <path id="패스_1210" data-name="패스 1210" d="M1315.762,169.025a2.475,2.475,0,0,1-2.608-2.8c.03-1.881,1.114-2.951,2.578-2.881a2.177,2.177,0,0,1,1.5.61v-3.037h1.725v8.029h-1.725v-.49A2.072,2.072,0,0,1,1315.762,169.025Zm.351-1.531a1.112,1.112,0,0,0,1.063-1.171c0-.88-.511-1.451-1.2-1.451a1.151,1.151,0,0,0-1.1,1.3C1314.869,167.184,1315.491,167.534,1316.113,167.494Z" transform="translate(-1299.685 -160.916)" fill="#888"/>
      <path id="패스_1211" data-name="패스 1211" d="M1423.6,162.588h3.036c2.178,0,3.358,1,3.358,2.705,0,1.41-1.148,2.643-3.144,2.643H1425.5v2.343h-1.9Zm1.9,3.7h1.438a1.076,1.076,0,0,0,1.2-1.036c0-.56-.418-1.005-1.18-1.005H1425.5Z" transform="translate(-1387.839 -162.251)" fill="#888"/>
      <path id="패스_1212" data-name="패스 1212" d="M1460.631,178.491v-.48a2.224,2.224,0,0,1-1.534.55,2.565,2.565,0,0,1-2.779-2.851,2.667,2.667,0,0,1,2.854-2.831,2.233,2.233,0,0,1,1.459.61v-.5h1.856v5.5Zm-1.309-1.461a1.136,1.136,0,0,0,1.244-.89,2.26,2.26,0,0,0,.021-.27c0-.94-.536-1.461-1.223-1.461a1.17,1.17,0,0,0-1.191,1.3C1458.175,176.58,1458.668,177.03,1459.323,177.03Z" transform="translate(-1413.956 -170.462)" fill="#888"/>
      <path id="패스_1213" data-name="패스 1213" d="M1491.434,173.435h1.867l1.16,3.5,1.312-3.5h1.715l-3.027,7.216h-1.715l1.009-1.97Z" transform="translate(-1441.986 -170.908)" fill="#888"/>
      <path id="패스_1214" data-name="패스 1214" d="M1381.511,172.875h1.867l1.16,3.5,1.312-3.5h1.715l-3.027,7.216h-1.715l1.009-1.97Z" transform="translate(-1354.246 -170.462)" fill="#888"/>
    </g>
    <g id="그룹_244" data-name="그룹 244" transform="translate(1286.443 54.841)">
      <path id="패스_1215" data-name="패스 1215" d="M1445.016,128.374a.229.229,0,0,1,.24.225v.559h.807V128.6a.24.24,0,0,1,.479,0v.712h.553v-.923a.245.245,0,0,1,.487,0v3.172a.245.245,0,0,1-.487,0v-1.828h-.553v.654a.281.281,0,0,1-.174.309,1.706,1.706,0,0,1-.7.109,1.879,1.879,0,0,1-.7-.105.285.285,0,0,1-.182-.313V128.6A.229.229,0,0,1,1445.016,128.374Zm.269,1.973a1.525,1.525,0,0,0,.378.036,1.285,1.285,0,0,0,.371-.036.035.035,0,0,0,.029-.036v-.731h-.807v.731A.035.035,0,0,0,1445.285,130.347Z" transform="translate(-1444.776 -128.167)" fill="#888"/>
      <path id="패스_1216" data-name="패스 1216" d="M1462.866,130.369v-1.726c0-.142.116-.229.273-.229h1.326a.19.19,0,0,1,.2.207.193.193,0,0,1-.2.211h-1.112v1.479a.035.035,0,0,0,.029.036,1.845,1.845,0,0,0,.414.04,3.453,3.453,0,0,0,.727-.094.254.254,0,0,1,.073-.011.209.209,0,0,1,.218.2.222.222,0,0,1-.175.207,3.523,3.523,0,0,1-.843.109,2.38,2.38,0,0,1-.672-.084A.323.323,0,0,1,1462.866,130.369Zm2.544-2.2a.23.23,0,0,1,.244.222v3.172a.244.244,0,0,1-.487,0v-3.172A.23.23,0,0,1,1465.41,128.167Z" transform="translate(-1459.215 -128.167)" fill="#888"/>
      <path id="패스_1217" data-name="패스 1217" d="M1479.972,130.34a.061.061,0,0,1,.025,0v-1.5h-.054a.2.2,0,0,1-.222-.2.2.2,0,0,1,.222-.207h1.261a.2.2,0,0,1,.222.207.2.2,0,0,1-.222.2h-.051v1.475l.029-.007a.765.765,0,0,1,.149-.022.172.172,0,0,1,.178.185.2.2,0,0,1-.163.207,2.877,2.877,0,0,1-.785.087,3.9,3.9,0,0,1-.672-.036.191.191,0,0,1-.174-.2C1479.714,130.395,1479.83,130.325,1479.972,130.34Zm.752.022v-1.515h-.3v1.515h.3Zm.763-1.039h.174v-.894a.226.226,0,0,1,.236-.222.222.222,0,0,1,.236.222v3.06a.222.222,0,0,1-.236.222.226.226,0,0,1-.236-.222v-1.751h-.174a.194.194,0,0,1-.2-.211A.187.187,0,0,1,1481.487,129.323Zm1.119-1.156a.222.222,0,0,1,.236.222v3.165a.222.222,0,0,1-.236.222.226.226,0,0,1-.236-.222v-3.165A.226.226,0,0,1,1482.606,128.167Z" transform="translate(-1472.663 -128.167)" fill="#888"/>
      <path id="패스_1218" data-name="패스 1218" d="M1499.415,128.37c.578,0,.981.447.981,1.232s-.4,1.239-.981,1.239-.981-.454-.981-1.239S1498.837,128.37,1499.415,128.37Zm0,2.057c.258,0,.494-.265.494-.825s-.236-.821-.494-.821-.494.269-.494.821S1499.157,130.427,1499.415,130.427Zm1.65-2.26a.23.23,0,0,1,.244.222v3.172a.245.245,0,0,1-.487,0v-3.172A.23.23,0,0,1,1501.065,128.167Z" transform="translate(-1487.605 -128.167)" fill="#888"/>
    </g>
  </g>
</svg>
