<svg xmlns="http://www.w3.org/2000/svg" width="89.637" height="14.9" viewBox="0 0 89.637 14.9">
  <g id="그룹_184" data-name="그룹 184" transform="translate(-2248.175 -1206)">
    <path id="패스_1105" data-name="패스 1105" d="M264.188,381.708a3.594,3.594,0,0,1,2.718-1.2,3.193,3.193,0,0,1,1.073.184,4.529,4.529,0,0,1,.966.477,3.856,3.856,0,0,1,.757.7,3.2,3.2,0,0,1,.487.794l.11.262h3.5l-.172-.576a7.912,7.912,0,0,0-.986-2.111,7.185,7.185,0,0,0-1.537-1.673,6.987,6.987,0,0,0-1.955-1.1,6.5,6.5,0,0,0-2.264-.4,6.572,6.572,0,0,0-2.757.592,7.275,7.275,0,0,0-3.775,3.957,7.892,7.892,0,0,0,0,5.8,7.325,7.325,0,0,0,1.519,2.365,7.112,7.112,0,0,0,2.258,1.6,6.772,6.772,0,0,0,5.015.191,6.563,6.563,0,0,0,1.954-1.11,7.172,7.172,0,0,0,1.54-1.676,7.9,7.9,0,0,0,.986-2.111l.172-.576h-3.537l-.1.284a3.079,3.079,0,0,1-1.237,1.51,3.627,3.627,0,0,1-3.487.315,3.72,3.72,0,0,1-1.206-.848,4.225,4.225,0,0,1-.825-1.281,4.051,4.051,0,0,1-.3-1.574,4.164,4.164,0,0,1,.281-1.519A3.884,3.884,0,0,1,264.188,381.708Z" transform="translate(1988.37 828.943)" fill="#1d4094"/>
    <path id="패스_1106" data-name="패스 1106" d="M325.162,379.208a7.6,7.6,0,0,0-2.363-1.568,7.511,7.511,0,0,0-5.8,0,7.594,7.594,0,0,0-2.36,1.564,7.183,7.183,0,0,0-1.607,2.331,7.223,7.223,0,0,0,1.6,8.035A7.317,7.317,0,0,0,317,391.151a7.622,7.622,0,0,0,5.8,0,7.316,7.316,0,0,0,2.366-1.578,7.47,7.47,0,0,0,1.594-2.326,7.174,7.174,0,0,0,0-5.714A7.463,7.463,0,0,0,325.162,379.208Zm-1.572,6.716a4.03,4.03,0,0,1-.86,1.249,3.981,3.981,0,0,1-1.267.836,4.029,4.029,0,0,1-1.557.3,4.145,4.145,0,0,1-1.586-.3,3.945,3.945,0,0,1-1.275-.835,3.843,3.843,0,0,1-1.154-2.792,3.841,3.841,0,0,1,.3-1.529,3.909,3.909,0,0,1,.849-1.245,4.088,4.088,0,0,1,1.278-.846,4.037,4.037,0,0,1,1.583-.309,3.921,3.921,0,0,1,1.552.308,4.128,4.128,0,0,1,1.271.847,4.045,4.045,0,0,1,.86,1.249,3.748,3.748,0,0,1,.312,1.525A3.789,3.789,0,0,1,323.59,385.924Z" transform="translate(1950.35 828.943)" fill="#51a6f6"/>
    <path id="패스_1110" data-name="패스 1110" d="M534.193,378.144v7.79l-4.732-7.79h-4.074v14.7h4.089v-7.785l4.711,7.785h4.075v-14.7Z" transform="translate(1799.551 827.856)" fill="#1d4094"/>
    <path id="패스_1111" data-name="패스 1111" d="M325.162,379.208a7.6,7.6,0,0,0-2.363-1.568,7.511,7.511,0,0,0-5.8,0,7.594,7.594,0,0,0-2.36,1.564,7.183,7.183,0,0,0-1.607,2.331,7.223,7.223,0,0,0,1.6,8.035A7.317,7.317,0,0,0,317,391.151a7.622,7.622,0,0,0,5.8,0,7.316,7.316,0,0,0,2.366-1.578,7.47,7.47,0,0,0,1.594-2.326,7.174,7.174,0,0,0,0-5.714A7.463,7.463,0,0,0,325.162,379.208Zm-1.572,6.716a4.03,4.03,0,0,1-.86,1.249,3.981,3.981,0,0,1-1.267.836,4.029,4.029,0,0,1-1.557.3,4.145,4.145,0,0,1-1.586-.3,3.945,3.945,0,0,1-1.275-.835,3.843,3.843,0,0,1-1.154-2.792,3.841,3.841,0,0,1,.3-1.529,3.909,3.909,0,0,1,.849-1.245,4.088,4.088,0,0,1,1.278-.846,4.037,4.037,0,0,1,1.583-.309,3.921,3.921,0,0,1,1.552.308,4.128,4.128,0,0,1,1.271.847,4.045,4.045,0,0,1,.86,1.249,3.748,3.748,0,0,1,.312,1.525A3.789,3.789,0,0,1,323.59,385.924Z" transform="translate(1966.35 828.943)" fill="#51a6f6"/>
    <path id="패스_1112" data-name="패스 1112" d="M264.188,381.708a3.594,3.594,0,0,1,2.718-1.2,3.193,3.193,0,0,1,1.073.184,4.529,4.529,0,0,1,.966.477,3.856,3.856,0,0,1,.757.7,3.2,3.2,0,0,1,.487.794l.11.262h3.5l-.172-.576a7.912,7.912,0,0,0-.986-2.111,7.185,7.185,0,0,0-1.537-1.673,6.987,6.987,0,0,0-1.955-1.1,6.5,6.5,0,0,0-2.264-.4,6.572,6.572,0,0,0-2.757.592,7.275,7.275,0,0,0-3.775,3.957,7.892,7.892,0,0,0,0,5.8,7.325,7.325,0,0,0,1.519,2.365,7.112,7.112,0,0,0,2.258,1.6,6.772,6.772,0,0,0,5.015.191,6.563,6.563,0,0,0,1.954-1.11,7.172,7.172,0,0,0,1.54-1.676,7.9,7.9,0,0,0,.986-2.111l.172-.576h-3.537l-.1.284a3.079,3.079,0,0,1-1.237,1.51,3.627,3.627,0,0,1-3.487.315,3.72,3.72,0,0,1-1.206-.848,4.225,4.225,0,0,1-.825-1.281,4.051,4.051,0,0,1-.3-1.574,4.164,4.164,0,0,1,.281-1.519A3.884,3.884,0,0,1,264.188,381.708Z" transform="translate(2034.37 828.943)" fill="#1d4094"/>
    <path id="패스_1113" data-name="패스 1113" d="M325.162,379.208a7.6,7.6,0,0,0-2.363-1.568,7.511,7.511,0,0,0-5.8,0,7.594,7.594,0,0,0-2.36,1.564,7.183,7.183,0,0,0-1.607,2.331,7.223,7.223,0,0,0,1.6,8.035A7.317,7.317,0,0,0,317,391.151a7.622,7.622,0,0,0,5.8,0,7.316,7.316,0,0,0,2.366-1.578,7.47,7.47,0,0,0,1.594-2.326,7.174,7.174,0,0,0,0-5.714A7.463,7.463,0,0,0,325.162,379.208Zm-1.572,6.716a4.03,4.03,0,0,1-.86,1.249,3.981,3.981,0,0,1-1.267.836,4.029,4.029,0,0,1-1.557.3,4.145,4.145,0,0,1-1.586-.3,3.945,3.945,0,0,1-1.275-.835,3.843,3.843,0,0,1-1.154-2.792,3.841,3.841,0,0,1,.3-1.529,3.909,3.909,0,0,1,.849-1.245,4.088,4.088,0,0,1,1.278-.846,4.037,4.037,0,0,1,1.583-.309,3.921,3.921,0,0,1,1.552.308,4.128,4.128,0,0,1,1.271.847,4.045,4.045,0,0,1,.86,1.249,3.748,3.748,0,0,1,.312,1.525A3.789,3.789,0,0,1,323.59,385.924Z" transform="translate(1996.35 828.943)" fill="#1d4094"/>
  </g>
</svg>
