<svg id="그룹_249" data-name="그룹 249" xmlns="http://www.w3.org/2000/svg" xmlns:xlink="http://www.w3.org/1999/xlink" width="88.916" height="34" viewBox="0 0 88.916 34">
  <defs>
    <clipPath id="clip-path">
      <rect id="사각형_117" data-name="사각형 117" width="88.916" height="34" fill="#888"/>
    </clipPath>
  </defs>
  <g id="그룹_139" data-name="그룹 139" clip-path="url(#clip-path)">
    <path id="패스_1058" data-name="패스 1058" d="M219.254,60.52a1.861,1.861,0,0,0-1.88,1.319l-3.665,15.284h3.267c.761-.011,1.1-.228,1.253-.911l3.762-15.692Z" transform="translate(-153.006 -43.33)" fill="#888"/>
    <path id="패스_1059" data-name="패스 1059" d="M122.9,80.612c-.26,1.095-1.864,7.872-1.864,7.872l2.041,0V88.48a2.5,2.5,0,0,0,2.508-1.622s.656-2.682,1.415-5.762-1.175-4.657-4.6-4.657h-8.554c-.382,0-.468.437-.083.607.952.424,1.119.877.927,1.655h0l-2.334,9.827,2.041,0v-.007A2.5,2.5,0,0,0,116.9,86.9l1.879-7.646c.12-.428.273-.523.69-.523H121.5a1.385,1.385,0,0,1,1.4,1.878" transform="translate(-80.439 -54.727)" fill="#888"/>
    <path id="패스_1060" data-name="패스 1060" d="M10.264,66.386H1.485c-.473,0-.574.539-.1.75,1.18.523,1.391,1.084,1.161,2.043h0L.018,79.751c-.1.737.167,1.567,1.754,1.567l-.012,0H7.124c5.786,0,9.886-3.07,10.867-7.1.9-3.706-1.119-7.836-7.727-7.836m2.861,8c-1.006,4.292-5.141,4.917-7.6,4.917H5.129l2.519-10.57h1.37c4,0,4.748,2.926,4.107,5.654" transform="translate(0 -47.529)" fill="#888"/>
    <path id="패스_1061" data-name="패스 1061" d="M71.831,75.8c-4.637,0-6.454,1.822-6.892,3.791h3.177a.576.576,0,0,0,.58-.231,3.561,3.561,0,0,1,3.044-1.618c1.006,0,1.394.545,1.232,1.222-.2.842-.809,1.251-2.521,1.691-3.38.854-6.59,1.8-7.16,4.185-.42,1.754.466,3.428,3.988,3.428a6.344,6.344,0,0,0,4-1.521h.064s.116,1.188,2.03,1.315l1.472,0,2-8.333c.427-1.542.644-3.932-5.005-3.932M69.048,86.188c-1.929.35-2.46-1.816-.077-2.837A33.033,33.033,0,0,1,72.385,82.1c-.2.776-.716,3.614-3.337,4.088" transform="translate(-45.245 -54.272)" fill="#888"/>
    <path id="패스_1062" data-name="패스 1062" d="M173.97,75.8c-4.637,0-6.454,1.822-6.892,3.791h3.177a.577.577,0,0,0,.581-.231,3.562,3.562,0,0,1,3.044-1.618c1.006,0,1.394.545,1.232,1.222-.2.842-.809,1.251-2.52,1.691-3.382.854-6.591,1.8-7.162,4.185-.42,1.754.466,3.428,3.988,3.428a6.347,6.347,0,0,0,4-1.521h.064s.115,1.188,2.03,1.315l1.47,0,2-8.333c.427-1.542.644-3.932-5.005-3.932m-2.784,10.385c-1.929.35-2.46-1.816-.077-2.837a33.063,33.063,0,0,1,3.414-1.251c-.2.776-.716,3.614-3.338,4.088" transform="translate(-118.371 -54.272)" fill="#888"/>
    <path id="패스_1063" data-name="패스 1063" d="M218.471,15.171a9.815,9.815,0,0,0-1.317.032c-.283.043,1.159,2.747,3.432,3.6a7.832,7.832,0,0,0-1.045.334c-.213.1,1.107,2.288,3.469,2.192a6.22,6.22,0,0,0-.852.431c-.166.113,1.745,1.81,4.1,1.209a20.891,20.891,0,0,1,2.492,13.661c14.17-6.152,7.915-21.575-10.28-21.46" transform="translate(-155.447 -10.855)" fill="#888"/>
    <path id="패스_1064" data-name="패스 1064" d="M262.6.027c-.4.037.348,2.367,2.576,3.871l0,.017c-.577-.144-1.2-.268-1.862-.366-.391-.039-.091,2.466,2.2,4.03v0a8.944,8.944,0,0,0-2.013-.2c-.187.009.1,1.556,1.616,3.045-1.251,5.849-4.981,12.177-7.049,15.352C274.183,19.1,281.156-.833,262.6.027" transform="translate(-184.768 0)" fill="#888"/>
    <path id="패스_1065" data-name="패스 1065" d="M264.726,42.276a54.875,54.875,0,0,1-6.655,13.767c7.44-3.23,9.248-9.015,6.655-13.767" transform="translate(-184.768 -30.268)" fill="#888"/>
  </g>
</svg>
