<svg xmlns="http://www.w3.org/2000/svg" width="98.708" height="27" viewBox="0 0 98.708 27">
  <g id="그룹_148" data-name="그룹 148" transform="translate(0)">
    <g id="그룹_146" data-name="그룹 146">
      <path id="패스_1066" data-name="패스 1066" d="M24.8,0H3.6A3.476,3.476,0,0,0,0,3.333V23.89A2.922,2.922,0,0,0,2.688,27h17.6a8.9,8.9,0,0,0,6.034-2.312h0a1.809,1.809,0,0,0-1.393-3.111H8a1.591,1.591,0,0,1-1.649-1.525v-1.3a2.368,2.368,0,0,1,.778-1.738l6.024-5.572a.628.628,0,0,0-.484-1.08H9.556A2.232,2.232,0,0,1,7.261,8.5q-.01-.09-.012-.184A2.212,2.212,0,0,1,9.556,6.213H19.62a1.7,1.7,0,0,1,1.572.986v0a3.709,3.709,0,0,1-.938,4.228l-3.9,3.605a.848.848,0,0,0,.653,1.458h3.47a3.95,3.95,0,0,0,3.757-2.5L27.879,3.96A3.048,3.048,0,0,0,24.8,0" transform="translate(-0.001)" fill="#124284"/>
      <g id="그룹_147" data-name="그룹 147" transform="translate(1 -1.096)">
        <path id="패스_1067" data-name="패스 1067" d="M271.629,99.875h2.015a2.346,2.346,0,0,1,1.126.246,1.592,1.592,0,0,1,.676.669,2.233,2.233,0,0,1,0,1.937,1.6,1.6,0,0,1-.674.675,2.306,2.306,0,0,1-1.12.248h-1.286V105.8h-.737Zm1.99,3.12a1.316,1.316,0,0,0,.995-.336,1.267,1.267,0,0,0,.323-.9,1.247,1.247,0,0,0-.326-.9,1.34,1.34,0,0,0-1-.332h-1.245V103Z" transform="translate(-241.288 -88.698)" fill="#1a1311"/>
        <path id="패스_1068" data-name="패스 1068" d="M303.652,111.586a2.683,2.683,0,0,1,1.2-.338q.283-.02.672-.041t.532-.025v-.36a.846.846,0,0,0-.256-.661,1.087,1.087,0,0,0-.752-.231,1.207,1.207,0,0,0-.663.166.759.759,0,0,0-.336.432h-.737a1.184,1.184,0,0,1,.278-.631,1.545,1.545,0,0,1,.621-.428,2.345,2.345,0,0,1,.87-.153,2.126,2.126,0,0,1,1.159.325,1.354,1.354,0,0,1,.512,1.247v2.932h-.7v-.606h-.033a1.251,1.251,0,0,1-.469.493,1.581,1.581,0,0,1-.858.219,1.825,1.825,0,0,1-.77-.166,1.285,1.285,0,0,1-.545-.471,1.314,1.314,0,0,1-.2-.731,1.043,1.043,0,0,1,.473-.973m.491,1.529a1.162,1.162,0,0,0,.682.18,1.359,1.359,0,0,0,.659-.152,1.064,1.064,0,0,0,.424-.4,1.049,1.049,0,0,0,.145-.536v-.446q-.094,0-.541.037l-.581.041a1.559,1.559,0,0,0-.772.217.658.658,0,0,0-.016,1.061" transform="translate(-268.075 -96.713)" fill="#1a1311"/>
        <path id="패스_1069" data-name="패스 1069" d="M331.313,115.8v-.631q.049,0,.344.016a1.163,1.163,0,0,0,.3-.039.511.511,0,0,0,.235-.18,1.58,1.58,0,0,0,.229-.453l.131-.336-1.646-4.48h.77l1.212,3.53h.049l1.212-3.53h.77l-1.883,5.086a1.7,1.7,0,0,1-.524.776,1.3,1.3,0,0,1-.8.256q-.3-.008-.393-.016" transform="translate(-291.616 -97.035)" fill="#1a1311"/>
        <path id="패스_1070" data-name="패스 1070" d="M362.645,109.373h.68v.7h.057a1.124,1.124,0,0,1,.45-.555,1.356,1.356,0,0,1,.745-.2,1.308,1.308,0,0,1,.729.194,1.242,1.242,0,0,1,.459.559h.049a1.273,1.273,0,0,1,.518-.553,1.6,1.6,0,0,1,.817-.2,1.45,1.45,0,0,1,.71.168,1.152,1.152,0,0,1,.477.512,1.894,1.894,0,0,1,.172.852v2.973h-.7v-2.964a.886.886,0,0,0-.254-.686.934.934,0,0,0-.647-.223,1.023,1.023,0,0,0-.522.127.845.845,0,0,0-.334.348,1.122,1.122,0,0,0-.119.508v2.891h-.713v-3.038a.866.866,0,0,0-.108-.436.744.744,0,0,0-.307-.295.957.957,0,0,0-.452-.1.927.927,0,0,0-.5.141,1.035,1.035,0,0,0-.367.391,1.156,1.156,0,0,0-.137.565v2.776h-.7Z" transform="translate(-318.566 -96.713)" fill="#1a1311"/>
        <path id="패스_1071" data-name="패스 1071" d="M408.545,113.627a1.856,1.856,0,0,1-.723-.8,2.694,2.694,0,0,1-.252-1.2,2.763,2.763,0,0,1,.252-1.206,1.943,1.943,0,0,1,.708-.819,1.911,1.911,0,0,1,1.055-.293,2.018,2.018,0,0,1,.938.223,1.691,1.691,0,0,1,.706.721,2.643,2.643,0,0,1,.272,1.276v.295h-3.227a1.766,1.766,0,0,0,.195.79,1.223,1.223,0,0,0,.481.5,1.406,1.406,0,0,0,.7.17,1.319,1.319,0,0,0,.637-.141,1.008,1.008,0,0,0,.395-.366h.753a1.483,1.483,0,0,1-.354.6,1.66,1.66,0,0,1-.614.4,2.285,2.285,0,0,1-.817.139,2.107,2.107,0,0,1-1.105-.283m2.244-2.4a1.448,1.448,0,0,0-.149-.663,1.134,1.134,0,0,0-.422-.463,1.18,1.18,0,0,0-.633-.168,1.245,1.245,0,0,0-.661.176,1.27,1.27,0,0,0-.454.473,1.527,1.527,0,0,0-.19.645Z" transform="translate(-356.71 -96.713)" fill="#1a1311"/>
        <path id="패스_1072" data-name="패스 1072" d="M440.394,113.82h-.7v-4.447h.68v.7h.057a1.241,1.241,0,0,1,.489-.555,1.535,1.535,0,0,1,.813-.2,1.612,1.612,0,0,1,.794.186,1.25,1.25,0,0,1,.52.563,2.106,2.106,0,0,1,.184.93v2.825h-.7v-2.776a1.15,1.15,0,0,0-.266-.807.954.954,0,0,0-.741-.291,1.175,1.175,0,0,0-.581.141.984.984,0,0,0-.4.414,1.376,1.376,0,0,0-.143.649Z" transform="translate(-383.982 -96.713)" fill="#1a1311"/>
        <path id="패스_1073" data-name="패스 1073" d="M470.439,104.3H469.5v2.58a.674.674,0,0,0,.154.526.629.629,0,0,0,.428.137c.106,0,.209,0,.307-.012l.111,0v.655a3.369,3.369,0,0,1-.492.033,1.388,1.388,0,0,1-.59-.129,1.094,1.094,0,0,1-.455-.391,1.111,1.111,0,0,1-.176-.635V104.3h-.672v-.59h.672v-1.065h.712v1.065h.934Z" transform="translate(-408.121 -91.047)" fill="#1a1311"/>
        <path id="패스_1074" data-name="패스 1074" d="M506.168,100.349a1.679,1.679,0,0,0-1.052-.33,1.731,1.731,0,0,0-.958.274,1.878,1.878,0,0,0-.676.807,2.988,2.988,0,0,0-.25,1.278,2.953,2.953,0,0,0,.252,1.275,1.8,1.8,0,0,0,1.681,1.083,1.79,1.79,0,0,0,.88-.213,1.524,1.524,0,0,0,.6-.6,1.857,1.857,0,0,0,.221-.907H505.32v-.647h2.268v.639a2.539,2.539,0,0,1-.309,1.271,2.145,2.145,0,0,1-.86.846,2.789,2.789,0,0,1-2.645-.072,2.44,2.44,0,0,1-.927-1.061,4.137,4.137,0,0,1,0-3.227,2.414,2.414,0,0,1,2.268-1.435,2.623,2.623,0,0,1,1.134.244,2.317,2.317,0,0,1,.856.682,2.35,2.35,0,0,1,.45,1.007h-.762a1.865,1.865,0,0,0-.626-.915" transform="translate(-437.327 -88.236)" fill="#1a1311"/>
        <path id="패스_1075" data-name="패스 1075" d="M541.894,111.586a2.684,2.684,0,0,1,1.2-.338q.282-.02.672-.041t.532-.025v-.36a.846.846,0,0,0-.256-.661,1.087,1.087,0,0,0-.752-.231,1.206,1.206,0,0,0-.663.166.759.759,0,0,0-.336.432h-.737a1.185,1.185,0,0,1,.279-.631,1.545,1.545,0,0,1,.621-.428,2.344,2.344,0,0,1,.87-.153,2.126,2.126,0,0,1,1.159.325,1.354,1.354,0,0,1,.512,1.247v2.932h-.7v-.606h-.033a1.25,1.25,0,0,1-.469.493,1.581,1.581,0,0,1-.858.219,1.824,1.824,0,0,1-.77-.166,1.285,1.285,0,0,1-.545-.471,1.314,1.314,0,0,1-.2-.731,1.043,1.043,0,0,1,.473-.973m.491,1.529a1.162,1.162,0,0,0,.682.18,1.359,1.359,0,0,0,.659-.152,1.064,1.064,0,0,0,.424-.4,1.048,1.048,0,0,0,.145-.536v-.446q-.094,0-.541.037l-.581.041a1.559,1.559,0,0,0-.772.217.616.616,0,0,0-.276.536.61.61,0,0,0,.26.524" transform="translate(-470.357 -96.713)" fill="#1a1311"/>
        <path id="패스_1076" data-name="패스 1076" d="M572.387,104.3h-.934v2.58a.675.675,0,0,0,.154.526.63.63,0,0,0,.428.137c.106,0,.209,0,.307-.012l.111,0v.655a3.368,3.368,0,0,1-.491.033,1.388,1.388,0,0,1-.59-.129,1.1,1.1,0,0,1-.454-.391,1.111,1.111,0,0,1-.176-.635V104.3h-.672v-.59h.672v-1.065h.712v1.065h.934Z" transform="translate(-494.681 -91.047)" fill="#1a1311"/>
        <path id="패스_1077" data-name="패스 1077" d="M590.712,113.627a1.856,1.856,0,0,1-.723-.8,2.694,2.694,0,0,1-.252-1.2,2.763,2.763,0,0,1,.252-1.206,1.942,1.942,0,0,1,.708-.819,1.911,1.911,0,0,1,1.054-.293,2.018,2.018,0,0,1,.938.223,1.69,1.69,0,0,1,.706.721,2.643,2.643,0,0,1,.272,1.276v.295h-3.227a1.765,1.765,0,0,0,.195.79,1.224,1.224,0,0,0,.481.5,1.406,1.406,0,0,0,.7.17,1.319,1.319,0,0,0,.637-.141,1.008,1.008,0,0,0,.4-.366h.754a1.484,1.484,0,0,1-.354.6,1.66,1.66,0,0,1-.614.4,2.284,2.284,0,0,1-.817.139,2.106,2.106,0,0,1-1.106-.283m2.244-2.4a1.447,1.447,0,0,0-.149-.663,1.134,1.134,0,0,0-.422-.463,1.18,1.18,0,0,0-.633-.168,1.245,1.245,0,0,0-.661.176,1.271,1.271,0,0,0-.455.473,1.526,1.526,0,0,0-.19.645Z" transform="translate(-511.38 -96.713)" fill="#1a1311"/>
        <path id="패스_1078" data-name="패스 1078" d="M619.524,109.695h.745l.95,3.391h.041l.942-3.391h.753l.925,3.374h.049l.95-3.374h.737l-1.351,4.447h-.7l-.967-3.39h-.065l-.958,3.39h-.7Z" transform="translate(-536.671 -97.035)" fill="#1a1311"/>
        <path id="패스_1079" data-name="패스 1079" d="M664.107,111.586a2.683,2.683,0,0,1,1.2-.338q.283-.02.672-.041t.532-.025v-.36a.846.846,0,0,0-.256-.661,1.087,1.087,0,0,0-.752-.231,1.207,1.207,0,0,0-.663.166.759.759,0,0,0-.336.432h-.737a1.184,1.184,0,0,1,.278-.631,1.545,1.545,0,0,1,.621-.428,2.345,2.345,0,0,1,.87-.153,2.126,2.126,0,0,1,1.159.325,1.353,1.353,0,0,1,.512,1.247v2.932h-.7v-.606h-.033a1.251,1.251,0,0,1-.469.493,1.581,1.581,0,0,1-.858.219,1.825,1.825,0,0,1-.77-.166,1.286,1.286,0,0,1-.545-.471,1.314,1.314,0,0,1-.2-.731,1.043,1.043,0,0,1,.473-.973m.491,1.529a1.162,1.162,0,0,0,.682.18,1.359,1.359,0,0,0,.659-.152,1.064,1.064,0,0,0,.424-.4,1.049,1.049,0,0,0,.145-.536v-.446q-.094,0-.541.037l-.581.041a1.559,1.559,0,0,0-.772.217.658.658,0,0,0-.016,1.061" transform="translate(-574.123 -96.713)" fill="#1a1311"/>
        <path id="패스_1080" data-name="패스 1080" d="M691.769,115.8v-.631q.049,0,.344.016a1.163,1.163,0,0,0,.3-.039.512.512,0,0,0,.235-.18,1.576,1.576,0,0,0,.229-.453l.131-.336-1.646-4.48h.77l1.212,3.53h.049l1.212-3.53h.77l-1.883,5.086a1.7,1.7,0,0,1-.524.776,1.3,1.3,0,0,1-.8.256q-.3-.008-.393-.016" transform="translate(-597.664 -97.035)" fill="#1a1311"/>
      </g>
    </g>
  </g>
</svg>
