<svg xmlns="http://www.w3.org/2000/svg" width="57.76" height="57.76" viewBox="81.915 74.838 57.76 57.76"><path d="M110.79 74.838c-15.945 0-28.875 12.924-28.875 28.88s12.93 28.88 28.874 28.88c15.956 0 28.886-12.924 28.886-28.88s-12.93-28.88-28.886-28.88m-9.87 31.016h-6.378a.463.463 0 0 0-.52.525v7.417h-3.58v-8.109c0-2.309.967-3.252 3.217-3.252h7.381a2.662 2.662 0 0 0 2.858-2.428 4.465 4.465 0 0 0 0-.4 2.574 2.574 0 0 0-2.399-2.745c-.143-.012-.28 0-.423.006h-10.67v-3.58h10.515c4.618 0 6.593 2.846 6.593 6.14 0 3.09-1.79 6.426-6.593 6.426m23.032 5.657c-.758 1.915-2.16 2.637-4.29 2.637-1.999 0-3.55-.632-4.308-2.637l-6.868-18.235 3.944.012 6.23 16.499a.985.985 0 0 0 1.002.698c.453.018.871-.275 1.008-.698l6.534-16.5h3.98l-7.232 18.224Z" fill="#fff" fill-rule="evenodd" data-name="패스 164"/></svg>