<svg xmlns="http://www.w3.org/2000/svg" width="85.82" height="36" viewBox="0 0 85.82 36">
  <g id="그룹_224" data-name="그룹 224" transform="translate(-75.895 -120.445)">
    <g id="그룹_222" data-name="그룹 222" transform="translate(116.952 150.928)">
      <path id="패스_1125" data-name="패스 1125" d="M432.506,382.647h.731v5.378h-.785v-4.185l-1.678,2.079h-.145l-1.7-2.079v4.185h-.781v-5.378h.74l1.814,2.209Z" transform="translate(-428.15 -382.57)" fill="#d6006c"/>
      <path id="패스_1126" data-name="패스 1126" d="M482.724,381.986a2.96,2.96,0,0,1,2.106.789,2.6,2.6,0,0,1,.841,1.979,2.558,2.558,0,0,1-.849,1.969,3.044,3.044,0,0,1-2.141.779,2.87,2.87,0,0,1-2.056-.779,2.58,2.58,0,0,1-.822-1.954,2.637,2.637,0,0,1,.828-1.994A2.911,2.911,0,0,1,482.724,381.986Zm.031.731a2.135,2.135,0,0,0-1.54.578,1.952,1.952,0,0,0-.6,1.474,1.917,1.917,0,0,0,.605,1.447,2.27,2.27,0,0,0,3.039-.012,1.954,1.954,0,0,0,.611-1.467,1.91,1.91,0,0,0-.611-1.438A2.091,2.091,0,0,0,482.755,382.717Z" transform="translate(-473.784 -381.986)" fill="#d6006c"/>
      <path id="패스_1127" data-name="패스 1127" d="M542.91,382.647h.742v5.378h-.672l-3.649-4.142v4.142H538.6v-5.378h.633l3.68,4.177Z" transform="translate(-525.724 -382.57)" fill="#d6006c"/>
      <path id="패스_1128" data-name="패스 1128" d="M591.992,382.647h3.094v.685h-2.313v1.64h2.235v.689h-2.235v1.671h2.387v.685h-3.168Z" transform="translate(-572.896 -382.57)" fill="#d6006c"/>
      <path id="패스_1129" data-name="패스 1129" d="M625.038,382.647h.948l-2.016,2.533v2.845h-.8V385.18l-2.016-2.533h.943l1.461,1.854Z" transform="translate(-598.659 -382.57)" fill="#d6006c"/>
      <path id="패스_1130" data-name="패스 1130" d="M663.79,382.58h4.559v.685h-1.9v4.7h-.785v-4.7H663.79Z" transform="translate(-636.325 -382.511)" fill="#d6006c"/>
      <path id="패스_1131" data-name="패스 1131" d="M709.443,388.025v-5.378h1.367a1.993,1.993,0,0,1,1.315.4,1.348,1.348,0,0,1,.486,1.093,1.387,1.387,0,0,1-.238.812,1.419,1.419,0,0,1-.684.512,2.4,2.4,0,0,1,.512.462,9.315,9.315,0,0,1,.7,1.02q.285.458.457.689l.289.385h-.93l-.238-.354c-.008-.013-.023-.035-.047-.066l-.152-.212-.242-.393-.261-.42a4.2,4.2,0,0,0-.443-.527,1.687,1.687,0,0,0-.364-.283,1.245,1.245,0,0,0-.546-.086h-.2v2.341Zm1.016-4.724h-.234V385h.3a2.236,2.236,0,0,0,.815-.1.76.76,0,0,0,.344-.3.867.867,0,0,0,.123-.46.814.814,0,0,0-.137-.46.732.732,0,0,0-.385-.291A2.818,2.818,0,0,0,710.459,383.3Z" transform="translate(-676.657 -382.57)" fill="#d6006c"/>
      <path id="패스_1132" data-name="패스 1132" d="M750.706,382.647H753.8v.685h-2.313v1.64h2.235v.689h-2.235v1.671h2.387v.685h-3.168Z" transform="translate(-713.111 -382.57)" fill="#d6006c"/>
      <path id="패스_1133" data-name="패스 1133" d="M785.029,382.647h3.094v.685H785.81v1.64h2.235v.689H785.81v1.671H788.2v.685h-3.168Z" transform="translate(-743.434 -382.57)" fill="#d6006c"/>
    </g>
    <g id="그룹_223" data-name="그룹 223" transform="translate(114.325 120.445)">
      <path id="패스_1134" data-name="패스 1134" d="M420.844,125.806l-6.255.583,1.833-5.944-.068.113-3.124,5.171v.029h0v-.029l-3.124-5.171-.068-.113,1.833,5.944-6.255-.583,5.828,2.04-4.351,4.526,5.323-3.225.816,6.1v0l.816-6.1,5.323,3.225-4.351-4.526Z" transform="translate(-405.614 -120.445)" fill="#d6006c"/>
    </g>
    <path id="패스_1135" data-name="패스 1135" d="M131.758,391.147c-.2.056-.418.1-.643.145" transform="translate(-48.784 -239.151)" fill="#002466"/>
    <path id="패스_1136" data-name="패스 1136" d="M295.373,224.445v15.124h-1.939V224.445Z" transform="translate(-192.184 -91.879)" fill="#002466"/>
    <path id="패스_1137" data-name="패스 1137" d="M429.663,259.251l4.488,5.937h-2.21l-3.383-4.711h-.045l-3.36,4.711h-2.187l4.465-5.937v-.043l-4.4-5.765h2.21l3.27,4.56h.045l3.338-4.56h2.165l-4.4,5.765Z" transform="translate(-306.618 -117.497)" fill="#002466"/>
    <rect id="사각형_152" data-name="사각형 152" width="1.984" height="11.744" transform="translate(128.976 135.946)" fill="#002466"/>
    <path id="패스_1138" data-name="패스 1138" d="M98.119,267.407a3.314,3.314,0,0,0-1.093-.724,3.474,3.474,0,0,0-1.34-.262,2.835,2.835,0,0,0-2.39,1.106,5.257,5.257,0,0,0-.847,3.238,4.316,4.316,0,0,0,.879,2.9,2.924,2.924,0,0,0,2.337,1.026,3.372,3.372,0,0,0,2.562-.955,3.449,3.449,0,0,0,.911-2.484V269.88a3.387,3.387,0,0,0-.279-1.377A3.576,3.576,0,0,0,98.119,267.407Z" transform="translate(-14.625 -128.962)" fill="none"/>
    <path id="패스_1139" data-name="패스 1139" d="M84.777,254.433v1.49l-.146.117a3.768,3.768,0,0,0-1.64-1.415,4.808,4.808,0,0,0-2.144-.453,4.532,4.532,0,0,0-3.677,1.518,6.456,6.456,0,0,0-1.276,4.273,6.993,6.993,0,0,0,.311,2.152,4.612,4.612,0,0,0,.922,1.659,4.078,4.078,0,0,0,1.544,1.076,5.652,5.652,0,0,0,2.154.382,5.538,5.538,0,0,0,2.122-.372,3.573,3.573,0,0,0,1.565-1.337v1.106a4.958,4.958,0,0,1-.9,3.272,3.856,3.856,0,0,1-3.066,1.051,6.049,6.049,0,0,1-.682-.039,2.732,2.732,0,0,1-1.868-1.7H76.463a2.342,2.342,0,0,0,.4,1.212,3.247,3.247,0,0,0,.4.517c1.106,1.5,3.794,1.453,5.072,1.336.226-.04.44-.088.643-.145.078-.022.156-.044.231-.068a4.135,4.135,0,0,0,1.79-1.1,4.489,4.489,0,0,0,1.018-1.88,9.922,9.922,0,0,0,.322-2.685v-9.975Zm-.263,5.993a3.449,3.449,0,0,1-.911,2.484,3.372,3.372,0,0,1-2.562.955,2.924,2.924,0,0,1-2.337-1.026,4.316,4.316,0,0,1-.879-2.9,5.257,5.257,0,0,1,.847-3.238,2.835,2.835,0,0,1,2.39-1.106,3.475,3.475,0,0,1,1.34.262,3.314,3.314,0,0,1,1.093.724,3.576,3.576,0,0,1,.74,1.1,3.387,3.387,0,0,1,.279,1.377Z" transform="translate(0 -118.14)" fill="#002466"/>
    <path id="패스_1140" data-name="패스 1140" d="M193.517,264.3a1.985,1.985,0,0,0-.154.193h0a2.248,2.248,0,0,1,.154-.173Z" transform="translate(-103.777 -127.09)" fill="#002466"/>
    <path id="패스_1141" data-name="패스 1141" d="M203.458,303.167a1.961,1.961,0,0,0-.723,1.1,1.785,1.785,0,0,1,.7-.96,4.309,4.309,0,0,1,2.1-.785l3.373-.517-3.346.376A4.31,4.31,0,0,0,203.458,303.167Z" transform="translate(-112.056 -160.4)" fill="none"/>
    <path id="패스_1142" data-name="패스 1142" d="M202.428,322.365c0-.013.006-.026.009-.039C202.434,322.339,202.431,322.352,202.428,322.365Z" transform="translate(-111.785 -178.351)" fill="none"/>
    <path id="패스_1143" data-name="패스 1143" d="M194.109,253.863h0a3.063,3.063,0,0,0-2.94-2.668.841.841,0,0,0-.106-.013c-.227-.027-.44-.04-.627-.044l-.752-.044a5.729,5.729,0,0,0-3.913,1.035,3.74,3.74,0,0,0-.535.493v.021a2.232,2.232,0,0,0-.154.173,2.753,2.753,0,0,0-.585,1.791h1.592a2.261,2.261,0,0,1,.472-1.116,2.945,2.945,0,0,1,1.782-1.04,5.3,5.3,0,0,1,2.9.262,2.4,2.4,0,0,1,1.031,2.766l-3.969.523a5.6,5.6,0,0,0-3.231,1.349A3.541,3.541,0,0,0,183.99,260a3.308,3.308,0,0,0,.3,1.443,2.811,2.811,0,0,0,.854,1.046,3.844,3.844,0,0,0,1.327.627,5.976,5.976,0,0,0,1.7.188,5.581,5.581,0,0,0,1.165-.125,5.759,5.759,0,0,0,1.131-.366,4.619,4.619,0,0,0,.992-.6,4.038,4.038,0,0,0,.888-.8l.109.012v1.393h1.783v-7.611A6.576,6.576,0,0,0,194.109,253.863Zm-1.766,4.66a2.8,2.8,0,0,1-.3,1.255,3.6,3.6,0,0,1-.819,1.077,4.3,4.3,0,0,1-1.2.763,3.554,3.554,0,0,1-1.419.293,3.046,3.046,0,0,1-1.811-.5,1.664,1.664,0,0,1-.7-1.443,2.727,2.727,0,0,1,.049-.542c0-.013.006-.026.009-.039.008-.036.017-.072.027-.106a1.961,1.961,0,0,1,.723-1.1,4.311,4.311,0,0,1,2.1-.785l3.346-.376Z" transform="translate(-95.496 -115.411)" fill="#002466"/>
    <path id="패스_1144" data-name="패스 1144" d="M337.609,253.863h0a3.063,3.063,0,0,0-2.94-2.668.84.84,0,0,0-.106-.013c-.227-.027-.439-.04-.627-.044l-.752-.044a5.729,5.729,0,0,0-3.913,1.035,3.744,3.744,0,0,0-.535.493v.021a2.232,2.232,0,0,0-.154.173,2.753,2.753,0,0,0-.585,1.791h1.592a2.26,2.26,0,0,1,.472-1.116,2.945,2.945,0,0,1,1.782-1.04,5.3,5.3,0,0,1,2.9.262,2.4,2.4,0,0,1,1.031,2.766l-3.969.523a5.6,5.6,0,0,0-3.231,1.349A3.541,3.541,0,0,0,327.49,260a3.309,3.309,0,0,0,.3,1.443,2.811,2.811,0,0,0,.854,1.046,3.844,3.844,0,0,0,1.327.627,5.976,5.976,0,0,0,1.7.188,5.581,5.581,0,0,0,1.165-.125,5.76,5.76,0,0,0,1.131-.366,4.619,4.619,0,0,0,.992-.6,4.037,4.037,0,0,0,.888-.8l.109.012v1.393h1.783v-7.611A6.576,6.576,0,0,0,337.609,253.863Zm-1.766,4.66a2.8,2.8,0,0,1-.3,1.255,3.6,3.6,0,0,1-.819,1.077,4.3,4.3,0,0,1-1.2.763,3.554,3.554,0,0,1-1.419.293,3.046,3.046,0,0,1-1.811-.5,1.664,1.664,0,0,1-.7-1.443,2.725,2.725,0,0,1,.049-.542c0-.013.006-.026.009-.039.008-.036.017-.072.027-.106a1.961,1.961,0,0,1,.723-1.1,4.311,4.311,0,0,1,2.1-.785l3.346-.376Z" transform="translate(-222.271 -115.411)" fill="#002466"/>
    <path id="패스_1145" data-name="패스 1145" d="M573.608,253.863h0a3.063,3.063,0,0,0-2.94-2.668.845.845,0,0,0-.106-.013c-.227-.027-.44-.04-.627-.044l-.752-.044a5.729,5.729,0,0,0-3.913,1.035,3.748,3.748,0,0,0-.535.493v.021a2.3,2.3,0,0,0-.154.173,2.754,2.754,0,0,0-.585,1.791h1.592a2.261,2.261,0,0,1,.472-1.116,2.945,2.945,0,0,1,1.783-1.04,5.3,5.3,0,0,1,2.9.262,2.4,2.4,0,0,1,1.031,2.766L567.8,256a5.593,5.593,0,0,0-3.231,1.349A3.541,3.541,0,0,0,563.489,260a3.308,3.308,0,0,0,.3,1.443,2.81,2.81,0,0,0,.854,1.046,3.844,3.844,0,0,0,1.327.627,5.976,5.976,0,0,0,1.7.188,5.582,5.582,0,0,0,1.165-.125,5.761,5.761,0,0,0,1.131-.366,4.618,4.618,0,0,0,.992-.6,4.04,4.04,0,0,0,.888-.8l.109.012v1.393h1.783v-7.611A6.572,6.572,0,0,0,573.608,253.863Zm-1.766,4.66a2.8,2.8,0,0,1-.3,1.255,3.6,3.6,0,0,1-.819,1.077,4.3,4.3,0,0,1-1.2.763,3.554,3.554,0,0,1-1.419.293,3.046,3.046,0,0,1-1.811-.5,1.664,1.664,0,0,1-.7-1.443,2.72,2.72,0,0,1,.049-.542c0-.013.006-.026.009-.039.008-.036.017-.072.027-.106a1.961,1.961,0,0,1,.723-1.1,4.311,4.311,0,0,1,2.1-.785l3.346-.376Z" transform="translate(-430.763 -115.411)" fill="#002466"/>
    <path id="패스_1146" data-name="패스 1146" d="M202.007,323.2a2.872,2.872,0,0,1,.049-.542A2.728,2.728,0,0,0,202.007,323.2Z" transform="translate(-111.413 -178.648)" fill="#fff"/>
    <path id="패스_1147" data-name="패스 1147" d="M202.5,321.52c.008-.036.018-.071.027-.106C202.521,321.449,202.512,321.484,202.5,321.52Z" transform="translate(-111.852 -177.546)" fill="#fff"/>
  </g>
</svg>
