<svg xmlns="http://www.w3.org/2000/svg" xmlns:xlink="http://www.w3.org/1999/xlink" width="69.771" height="34.016" viewBox="0 0 69.771 34.016">
  <defs>
    <clipPath id="clip-path">
      <path id="패스_1040" data-name="패스 1040" d="M41.887,0a3.355,3.355,0,0,0-2.335,5.727l2.887,2.882c.053-1.117.836-1.848,1.857-2.882A3.355,3.355,0,0,0,41.962,0Z" transform="translate(-38.57)" fill="#888"/>
    </clipPath>
    <clipPath id="clip-path-2">
      <path id="패스_1041" data-name="패스 1041" d="M39.547,10.459a3.355,3.355,0,1,0,4.745,0L41.405,7.577c-.053,1.117-.836,1.849-1.858,2.882" transform="translate(-38.57 -7.577)" fill="#888"/>
    </clipPath>
    <clipPath id="clip-path-3">
      <path id="패스_1042" data-name="패스 1042" d="M25.209,10.459a3.355,3.355,0,1,0,4.745,0L27.068,7.578c-.054,1.116-.837,1.848-1.859,2.881" transform="translate(-24.232 -7.578)" fill="#888"/>
    </clipPath>
    <clipPath id="clip-path-4">
      <path id="패스_1043" data-name="패스 1043" d="M27.549,0a3.355,3.355,0,0,0-2.335,5.727L28.1,8.61c.053-1.117.836-1.849,1.857-2.883A3.355,3.355,0,0,0,27.624,0Z" transform="translate(-24.232)" fill="#888"/>
    </clipPath>
    <clipPath id="clip-path-5">
      <path id="패스_1044" data-name="패스 1044" d="M31.515,8.093a3.238,3.238,0,1,0,3.238-3.237,3.238,3.238,0,0,0-3.238,3.237" transform="translate(-31.515 -4.856)" fill="#888"/>
    </clipPath>
    <clipPath id="clip-path-6">
      <rect id="사각형_115" data-name="사각형 115" width="69.771" height="34.016" fill="#888"/>
    </clipPath>
  </defs>
  <g id="그룹_248" data-name="그룹 248" transform="translate(0 0)">
    <g id="그룹_127" data-name="그룹 127" transform="translate(38.57 0)">
      <g id="그룹_126" data-name="그룹 126" clip-path="url(#clip-path)">
        <rect id="사각형_110" data-name="사각형 110" width="7.365" height="8.609" transform="translate(-0.328 0)" fill="#888"/>
      </g>
    </g>
    <g id="그룹_129" data-name="그룹 129" transform="translate(38.57 7.577)">
      <g id="그룹_128" data-name="그룹 128" clip-path="url(#clip-path-2)">
        <rect id="사각형_111" data-name="사각형 111" width="7.364" height="8.938" transform="translate(-0.333 0)" fill="#888"/>
      </g>
    </g>
    <g id="그룹_131" data-name="그룹 131" transform="translate(24.232 7.578)">
      <g id="그룹_130" data-name="그룹 130" clip-path="url(#clip-path-3)">
        <rect id="사각형_112" data-name="사각형 112" width="7.363" height="8.937" transform="translate(-0.332 0)" fill="#888"/>
      </g>
    </g>
    <g id="그룹_133" data-name="그룹 133" transform="translate(24.232 0)">
      <g id="그룹_132" data-name="그룹 132" clip-path="url(#clip-path-4)">
        <rect id="사각형_113" data-name="사각형 113" width="7.365" height="8.61" transform="translate(-0.328 0)" fill="#888"/>
      </g>
    </g>
    <g id="그룹_135" data-name="그룹 135" transform="translate(31.515 4.856)">
      <g id="그룹_134" data-name="그룹 134" clip-path="url(#clip-path-5)">
        <rect id="사각형_114" data-name="사각형 114" width="6.475" height="6.475" transform="translate(0 0)" fill="#888"/>
      </g>
    </g>
    <g id="그룹_137" data-name="그룹 137" transform="translate(0 0)">
      <g id="그룹_136" data-name="그룹 136" clip-path="url(#clip-path-6)">
        <path id="패스_1045" data-name="패스 1045" d="M39.55,23.159c-2.171,0-3.322,1.147-3.322,3.438s1.151,3.438,3.322,3.438,3.321-1.147,3.321-3.438-1.151-3.438-3.321-3.438m1.663,4.409a1.027,1.027,0,0,1-1.125,1.081h-.562c-1.119,0-1.639-.685-1.639-2.052v-.971a1.026,1.026,0,0,1,1.125-1.08h.561c1.12,0,1.64.685,1.64,2.051Z" transform="translate(0 0)" fill="#888"/>
        <path id="패스_1046" data-name="패스 1046" d="M57.965,33.453v.436H51a.855.855,0,0,1-.61-.24.758.758,0,0,1-.252-.568v-3.17h1.076a.65.65,0,0,1,.648.65V32.8h5.452a.65.65,0,0,1,.65.65" transform="translate(0 0)" fill="#888"/>
        <path id="패스_1047" data-name="패스 1047" d="M61.812,30.884v2.387a.708.708,0,0,0,.219.536.785.785,0,0,0,.564.209h7.176V33.58a.65.65,0,0,0-.65-.65h-5.6v-.96h5.982V29.551a.65.65,0,0,0-.65-.65H61.878v1.086H67.8v.9Z" transform="translate(0 0)" fill="#888"/>
        <path id="패스_1048" data-name="패스 1048" d="M18.213,31.288v-2h3.263v-.436a.65.65,0,0,0-.65-.65H15.8a.827.827,0,0,1-.827-.827V26.5h6.235v-.436a.65.65,0,0,0-.65-.65H14.976V23.863h6.368v-.436a.65.65,0,0,0-.65-.65H13.252V27.7a1.733,1.733,0,0,0,1.717,1.6H16.5v2H11.846v.436a.65.65,0,0,0,.65.65H22.882v-.436a.65.65,0,0,0-.65-.65Z" transform="translate(0 0)" fill="#888"/>
        <path id="패스_1049" data-name="패스 1049" d="M2.454,29.722v.436a.65.65,0,0,0,.65.65H8.37v2.558a.65.65,0,0,0,.65.65h1.061V30.372a.65.65,0,0,0-.65-.65Z" transform="translate(0 0)" fill="#888"/>
        <path id="패스_1050" data-name="패스 1050" d="M6.3,25.555H5.236a2.42,2.42,0,0,0-.291-.774H5.77V23.67H3.692V22.651H2.184v.8a.218.218,0,0,1-.217.218H0v1.111H.825a2.939,2.939,0,0,0-.378,1.572,2.206,2.206,0,0,0,2.438,2.523A2.154,2.154,0,0,0,5.3,26.641h1v1.611a.65.65,0,0,0,.65.65h.942V23.3a.65.65,0,0,0-.65-.65H6.3ZM3.875,26.931a.611.611,0,0,1-.669.643H2.871c-.666,0-.975-.407-.975-1.221v-.578a.61.61,0,0,1,.669-.643H2.9c.667,0,.976.407.976,1.221Z" transform="translate(0 0)" fill="#888"/>
        <path id="패스_1051" data-name="패스 1051" d="M8.516,22.651v5.854a.65.65,0,0,0,.65.649h.915V23.3a.65.65,0,0,0-.65-.65Z" transform="translate(0 0)" fill="#888"/>
        <path id="패스_1052" data-name="패스 1052" d="M56.241,22.651v2.4h-.862V23.3a.65.65,0,0,0-.65-.65h-.942V27.26H49.874V23.806a.65.65,0,0,0-.65-.65H48.149v4.369a.771.771,0,0,0,.253.581.834.834,0,0,0,.6.24h4.789v1.548a.65.65,0,0,0,.65.65h.942V26.136h.862v4.313a.65.65,0,0,0,.65.65h.942V23.3a.65.65,0,0,0-.65-.65Z" transform="translate(0 0)" fill="#888"/>
        <path id="패스_1053" data-name="패스 1053" d="M29.54,24.116H30.6v-.437a.65.65,0,0,0-.65-.649H24.009v1.086H25.07v4.975H23.876v.424a.65.65,0,0,0,.65.649h6.208V29.091H29.54Zm-1.578,4.975H26.649V24.116h1.313Z" transform="translate(0 0)" fill="#888"/>
        <path id="패스_1054" data-name="패스 1054" d="M33.427,25.808V23.3a.65.65,0,0,0-.65-.65H31.716V33.366a.65.65,0,0,0,.65.65h1.061V26.894H34.5a.649.649,0,0,0,.649-.65v-.436Z" transform="translate(0 0)" fill="#888"/>
        <path id="패스_1055" data-name="패스 1055" d="M44.305,22.651V33.366a.65.65,0,0,0,.65.65h1.061V23.3a.65.65,0,0,0-.65-.65Z" transform="translate(0 0)" fill="#888"/>
        <path id="패스_1056" data-name="패스 1056" d="M67.795,22.651v1h-2.07v.436a.65.65,0,0,0,.65.65h1.42v.681h-2.07v.437a.65.65,0,0,0,.65.65h1.42V27.8a.65.65,0,0,0,.65.65h1.061V23.3a.65.65,0,0,0-.651-.65Z" transform="translate(0 0)" fill="#888"/>
        <path id="패스_1057" data-name="패스 1057" d="M64.378,25.382a2.642,2.642,0,0,1-.611-1.353c0-.042,0-.084,0-.127v-.108a.65.65,0,0,0-.65-.65h-1.1v.683a1.391,1.391,0,0,1-.012.3l0,.019a3.971,3.971,0,0,1-1.582,2.326l-.021.02-.016.012c-.054.046-.117.092-.175.138a8.436,8.436,0,0,1-.777.557l.7,1c.159-.084.353-.194.583-.328a7.719,7.719,0,0,0,.716-.48,9.518,9.518,0,0,0,.756-.632,5.535,5.535,0,0,0,.7-.782,5.472,5.472,0,0,0,.709.764,6.743,6.743,0,0,0,.763.587,8.222,8.222,0,0,0,.709.435c.226.123.418.226.578.31l.7-1a7.113,7.113,0,0,1-1.971-1.688" transform="translate(0 0)" fill="#888"/>
      </g>
    </g>
  </g>
</svg>
