<svg xmlns="http://www.w3.org/2000/svg" width="91.856" height="36" viewBox="0 0 91.856 36">
  <g id="그룹_182" data-name="그룹 182" transform="translate(-167.103 -324.602)">
    <path id="패스_1" data-name="패스 1" d="M212.642,351.845H201.206a.507.507,0,0,1-.508-.507,1.048,1.048,0,0,0,.508.8l11.437,6.606c.28.161.507.065.507-.216V351.8a.689.689,0,0,0-.053-.248.5.5,0,0,1-.454.289" transform="translate(-15.745 -12.531)" fill="#e1006e"/>
    <path id="패스_2" data-name="패스 2" d="M212.642,348.041l-5.242-3.03-6.194,3.576c-.282.161-.508.064-.508-.214a.507.507,0,0,0,.508.506h11.437a.5.5,0,0,0,.454-.289,1.1,1.1,0,0,0-.454-.55" transform="translate(-15.745 -9.566)" fill="#6a1b7f"/>
    <path id="패스_3" data-name="패스 3" d="M213.149,324.9c0-.282-.228-.378-.506-.214l-11.438,6.6a1.053,1.053,0,0,0-.508.8.507.507,0,0,1,.508-.507h11.437a.5.5,0,0,1,.454.289.68.68,0,0,0,.053-.249Z" transform="translate(-15.745)" fill="#ffa81d"/>
    <path id="패스_4" data-name="패스 4" d="M212.642,337.729H201.206a.506.506,0,0,0-.508.507c0-.28.226-.376.508-.214L207.4,341.6l5.244-3.03a1.11,1.11,0,0,0,.453-.551.5.5,0,0,0-.454-.288" transform="translate(-15.745 -6.153)" fill="#f46e0f"/>
    <path id="패스_5" data-name="패스 5" d="M201.2,345.362l6.194-3.576L201.2,338.21c-.281-.161-.508-.066-.508.214v6.724c0,.279.227.375.508.214" transform="translate(-15.745 -6.341)" fill="#291968"/>
    <path id="패스_6" data-name="패스 6" d="M167.1,365.511h2.965v5.778l5.226-5.778h3.88l-5.985,6.458,6.5,7.458h-4.146l-5.474-6.609v6.609H167.1Z" transform="translate(0 -19.173)" fill="#291968"/>
    <path id="패스_7" data-name="패스 7" d="M202.4,378.127a11.7,11.7,0,0,1-5.643,1.334,7.311,7.311,0,0,1,0-14.621,7.489,7.489,0,0,1,5.357,1.785l-2.089,2.36a4.086,4.086,0,0,0-3.269-1.313,4.489,4.489,0,0,0,0,8.958,5.681,5.681,0,0,0,2.79-.683v-2.263h-2.414v-2.824H202.4Z" transform="translate(-10.497 -18.859)" fill="#291968"/>
    <path id="패스_8" data-name="패스 8" d="M224.45,378.862v-1.327h5.08v-2.929h-3.136v-6.292h7.789v6.292h-3.135v2.929h5.094v1.327Zm8.236-9.239H227.9V373.3h4.783Z" transform="translate(-26.878 -20.487)" fill="#291968"/>
    <path id="패스_9" data-name="패스 9" d="M236.156,378.871H224.264v-1.532h5.081V374.62H226.21v-6.506H234.2v6.506h-3.136v2.718h5.1Zm-11.7-.2h11.5v-1.13h-5.1v-3.128h3.13v-6.086H226.4v6.086h3.134v3.128h-5.08Zm8.242-5.364h-4.985v-3.877H232.7Zm-4.789-.206H232.5v-3.468h-4.593Z" transform="translate(-26.79 -20.394)" fill="#291968"/>
    <path id="패스_10" data-name="패스 10" d="M249.4,373.249v-6.035h1.5v1.838h3.051v-1.838h1.484v6.035Zm4.554-2.868h-3.049v1.558h3.049Zm-2.255,9.655v-3.42h6.082v-.852h-6.1v-1.28h7.6v3.367H253.2v.891h6.4v1.294Zm6.082-13.374h1.5v7.213h-1.5Z" transform="translate(-38.574 -19.713)" fill="#291968"/>
    <path id="패스_11" data-name="패스 11" d="M259.6,380.053h-8.086v-3.628h6.08v-.642H251.5v-1.49h7.8v3.571h-6.093v.7h6.4Zm-7.89-.2h7.7v-1.093h-6.4v-1.095H259.1V374.5h-7.4v1.076H257.8v1.056h-6.084Zm7.586-5.959h-1.7v-7.413h1.7Zm-1.5-.2h1.3v-7h-1.3Zm-2.338-.43h-6.246v-6.236h1.709v1.845h2.845v-1.845h1.691Zm-6.048-.2h5.847v-5.832h-1.3v1.842h-3.242v-1.842h-1.31Zm4.551-1.108h-3.243v-1.759h3.243Zm-3.04-.207h2.845V370.4h-2.845Z" transform="translate(-38.483 -19.627)" fill="#291968"/>
    <path id="패스_12" data-name="패스 12" d="M280.828,376.54c-.173,0-7.087,0-7.256,0V371.6h4.354v-2.216h-4.354v-1.324h5.772v4.864h-4.269V375.2l5.753,0Z" transform="translate(-49.9 -20.367)" fill="#291968"/>
    <path id="패스_13" data-name="패스 13" d="M280.842,376.552l-1.365,0c-2.051,0-5.861,0-5.991-.005h-.092V371.4h4.352v-2.013h-4.352V367.86h5.966v5.071h-4.272V375c.534,0,3.1,0,4.538,0h1.118l.1,0Zm-7.252-.205h7.057V375.21c-.173,0-.538,0-1.02,0h-4.733v-2.476h4.269v-4.666H273.59v1.122h4.349v2.418H273.59Z" transform="translate(-49.817 -20.275)" fill="#291968"/>
    <path id="패스_14" data-name="패스 14" d="M303.816,366.986h1.507v9.361h-1.507v-5.029H301.7a2.9,2.9,0,0,1-.324,1.054,3.717,3.717,0,0,1-.607.856,3.317,3.317,0,0,1-2.346.945,3.347,3.347,0,0,1-1.31-.25,3.381,3.381,0,0,1-1.042-.695,3.3,3.3,0,0,1-.7-1.065,3.659,3.659,0,0,1,0-2.687,3.282,3.282,0,0,1,.7-1.047,3.227,3.227,0,0,1,2.352-.964,3.324,3.324,0,0,1,1.291.256,3.282,3.282,0,0,1,1.055.709,3.229,3.229,0,0,1,.872,1.572h2.173Zm-7.184,3.832a2.1,2.1,0,0,0,.14.792,2.127,2.127,0,0,0,.378.626,1.635,1.635,0,0,0,.576.41,1.667,1.667,0,0,0,.7.146,1.707,1.707,0,0,0,1.268-.545,2.02,2.02,0,0,0,.529-1.429,1.939,1.939,0,0,0-.529-1.41,1.676,1.676,0,0,0-1.268-.562,1.72,1.72,0,0,0-1.276.554,2.11,2.11,0,0,0-.518,1.418m8.965,9.073h-7.719v-4.422H299.4v3.112h6.2Z" transform="translate(-59.997 -19.865)" fill="#291968"/>
    <path id="패스_15" data-name="패스 15" d="M305.609,379.9h-7.926v-4.616h1.727v3.1h6.2Zm-7.73-.2h7.535v-1.1h-6.2v-3.112h-1.335Zm7.449-3.335h-1.7v-5.026H301.7a3.244,3.244,0,0,1-.32,1,3.924,3.924,0,0,1-.627.869,3.3,3.3,0,0,1-1.088.718,3.526,3.526,0,0,1-2.67,0,3.213,3.213,0,0,1-1.075-.718,3.332,3.332,0,0,1-.723-1.089,3.57,3.57,0,0,1-.27-1.388,3.462,3.462,0,0,1,.27-1.378,3.3,3.3,0,0,1,.723-1.083,3.4,3.4,0,0,1,1.075-.726,3.526,3.526,0,0,1,2.67,0,3.426,3.426,0,0,1,1.084.726,3.352,3.352,0,0,1,.883,1.54h2V366.8h1.7Zm-1.506-.209h1.306v-9.152h-1.306v3.011h-2.346l-.016-.079a3.2,3.2,0,0,0-1.87-2.206,3.326,3.326,0,0,0-2.524,0,3.175,3.175,0,0,0-1.011.683,3.288,3.288,0,0,0-.689,1.019,3.357,3.357,0,0,0-.243,1.3,3.407,3.407,0,0,0,.243,1.306,3.223,3.223,0,0,0,.689,1.025,3.077,3.077,0,0,0,1.011.678,3.352,3.352,0,0,0,2.524,0,3.135,3.135,0,0,0,1.018-.678,3.735,3.735,0,0,0,.6-.824,2.986,2.986,0,0,0,.311-1.014l.005-.088h2.3Zm-5.486-3.353a1.78,1.78,0,0,1-1.346-.583,2.059,2.059,0,0,1-.4-.658,2.266,2.266,0,0,1-.144-.831,2.316,2.316,0,0,1,.144-.833,2.152,2.152,0,0,1,.4-.657,1.79,1.79,0,0,1,.606-.432,1.827,1.827,0,0,1,.74-.151,1.789,1.789,0,0,1,1.34.59,2.061,2.061,0,0,1,.554,1.482,2.17,2.17,0,0,1-.554,1.5,1.819,1.819,0,0,1-1.34.572m0-3.94a1.516,1.516,0,0,0-.666.137,1.426,1.426,0,0,0-.53.381,1.874,1.874,0,0,0-.368.6,2.082,2.082,0,0,0-.131.754,2.116,2.116,0,0,0,.131.759,1.776,1.776,0,0,0,.368.59,1.469,1.469,0,0,0,.53.389,1.718,1.718,0,0,0,.666.133,1.6,1.6,0,0,0,1.2-.518,1.913,1.913,0,0,0,.5-1.353,1.857,1.857,0,0,0-.5-1.342,1.591,1.591,0,0,0-1.2-.525" transform="translate(-59.907 -19.78)" fill="#291968"/>
    <path id="패스_16" data-name="패스 16" d="M317.782,376.983h11.7v1.3h-11.7Zm5.909-5.483a6.35,6.35,0,0,1-1.7,1.943,10.657,10.657,0,0,1-2.448,1.406l-.867-1.165a7.926,7.926,0,0,0,1.445-.705,7.259,7.259,0,0,0,1.37-1.053,5.964,5.964,0,0,0,1-1.258,2.823,2.823,0,0,0,.4-1.418v-1.492H324.5v1.492a2.912,2.912,0,0,0,.378,1.418,4.823,4.823,0,0,0,1,1.258,7.52,7.52,0,0,0,1.365,1.053,7.926,7.926,0,0,0,1.463.705l-.864,1.165a10.81,10.81,0,0,1-2.45-1.41,6.2,6.2,0,0,1-1.7-1.939" transform="translate(-70.621 -20.227)" fill="#291968"/>
    <path id="패스_17" data-name="패스 17" d="M329.5,378.278H317.605v-1.495H329.5Zm-11.7-.2h11.5v-1.093H317.8Zm9.99-3.2-.07-.025a11.624,11.624,0,0,1-2.48-1.436,6.4,6.4,0,0,1-1.633-1.815,6.514,6.514,0,0,1-1.642,1.822,10.747,10.747,0,0,1-2.47,1.429l-.072.025-.995-1.342.131-.044a8.149,8.149,0,0,0,1.434-.7,7.584,7.584,0,0,0,1.34-1.038,5.522,5.522,0,0,0,.986-1.236,2.709,2.709,0,0,0,.379-1.369v-1.6h1.812v1.6a2.767,2.767,0,0,0,.365,1.369,4.867,4.867,0,0,0,.979,1.236,7.665,7.665,0,0,0,1.355,1.038,7.858,7.858,0,0,0,1.444.7l.13.044Zm-9.037-1.241.739,1a10.972,10.972,0,0,0,2.355-1.371,6.153,6.153,0,0,0,1.673-1.914l.09-.155.082.158a6,6,0,0,0,1.674,1.9,11.057,11.057,0,0,0,2.356,1.378l.736-.993a8.23,8.23,0,0,1-1.347-.669,7.959,7.959,0,0,1-1.388-1.061,5.187,5.187,0,0,1-1.02-1.285,3.119,3.119,0,0,1-.385-1.473v-1.4h-1.422v1.4a2.92,2.92,0,0,1-.409,1.477,5.986,5.986,0,0,1-1.011,1.281,8,8,0,0,1-1.382,1.061,8.716,8.716,0,0,1-1.34.666" transform="translate(-70.538 -20.128)" fill="#291968"/>
    <rect id="사각형_1" data-name="사각형 1" width="1.579" height="13.234" transform="translate(231.702 346.954)" fill="#291968"/>
    <path id="패스_18" data-name="패스 18" d="M290.282,379.923h-1.776v-13.43h1.776Zm-1.574-.2h1.378V366.7h-1.378Z" transform="translate(-56.9 -19.634)" fill="#291968"/>
  </g>
</svg>
