<svg xmlns="http://www.w3.org/2000/svg" width="94.494" height="29.539" viewBox="0 0 94.494 29.539">
  <g id="그룹_262" data-name="그룹 262" transform="translate(-2625.506 -1153)">
    <path id="패스_1219" data-name="패스 1219" d="M1452.768,34.756h5.893V44.67h5.31l7.357,10.941h-7.122l-5.545-8.282v8.282h-5.893Z" transform="translate(1243.186 1126.928)" fill="#b8b8b8"/>
    <g id="그룹_246" data-name="그룹 246" transform="translate(2700.511 1153)">
      <path id="패스_1220" data-name="패스 1220" d="M1478.31,23.222l-3.61,19.411-1.741-3.282a17.528,17.528,0,0,0-2.114-3.056l-7.582,8.722-4.441-3.861,7.583-8.722a17.493,17.493,0,0,0-3.322-1.668L1459.59,29.5Z" transform="translate(-1458.821 -23.222)" fill="#888"/>
    </g>
    <path id="패스_1221" data-name="패스 1221" d="M1375.9,31.838a4.274,4.274,0,0,0-.477-2.011h3.676c.045,0,.082.032.082.058V49.451c0,.024-.035.05-.082.05h-3.118c-.048,0-.08-.026-.08-.05Z" transform="translate(1262.298 1128.146)" fill="#888"/>
    <path id="패스_1222" data-name="패스 1222" d="M1450.08,31.838a4.262,4.262,0,0,0-.477-2.011h3.675c.046,0,.083.032.083.058V49.451c0,.024-.035.05-.083.05h-3.116c-.05,0-.082-.026-.082-.05Z" transform="translate(1243.968 1128.146)" fill="#888"/>
    <path id="패스_1223" data-name="패스 1223" d="M1360.039,31.435V33.81h5.6c.369,0,.342.306.342.417a12.781,12.781,0,0,1-.3,2.768h-5.8v2.376h5.017a14.54,14.54,0,0,1-5.7,6.37l2.523,1.643c6.959-4.331,7.578-10.216,7.578-14.666V31.435Z" transform="translate(1266.306 1127.749)" fill="#888"/>
    <path id="패스_1224" data-name="패스 1224" d="M1400.5,41.309H1383.14c-.049,0-.084.027-.084.053v2.211c0,.024.035.052.084.052h6.766v1.731h-5.337a4.183,4.183,0,0,1,.491,2.04v4.516c0,.031.04.056.087.056h13.3c.048,0,.087-.025.087-.056v-6.5c0-.029-.038-.053-.087-.053h-4.767V43.624h6.819c.044,0,.083-.024.083-.052V41.362C1400.579,41.333,1400.54,41.309,1400.5,41.309Zm-5.239,6.327V49.71h-7V47.636Z" transform="translate(1260.411 1125.309)" fill="#888"/>
    <path id="패스_1225" data-name="패스 1225" d="M1398.9,33.215c0,2.378-2.857,4.305-6.383,4.305s-6.382-1.927-6.382-4.305,2.857-4.305,6.382-4.305S1398.9,30.837,1398.9,33.215Zm-6.383-1.969c-1.491,0-2.7.882-2.7,1.969s1.211,1.969,2.7,1.969,2.7-.882,2.7-1.969S1394.011,31.246,1392.519,31.246Z" transform="translate(1259.65 1128.373)" fill="#888"/>
    <path id="패스_1226" data-name="패스 1226" d="M1418.036,34.343V31.12h-9.962v3.223h1.612V41.6h-1.612v3.37h9.962v-3.3h-1.611V34.343Zm-4.211,7.362h-1.575V34.38h1.575Z" transform="translate(1254.229 1127.827)" fill="#888"/>
    <path id="패스_1227" data-name="패스 1227" d="M1420.723,36.1h1.648v-5.08l-.4-1.315h2.893V49.388H1422.3V39.975h-1.575Z" transform="translate(1251.104 1128.175)" fill="#888"/>
    <path id="패스_1228" data-name="패스 1228" d="M1427.144,29.709H1430V49.388h-2.564V30.74Z" transform="translate(1249.517 1128.175)" fill="#888"/>
    <path id="패스_1229" data-name="패스 1229" d="M1439.265,31.12c-3.094,0-5.6,3.017-5.6,6.739s2.51,6.739,5.6,6.739,5.6-3.017,5.6-6.739S1442.361,31.12,1439.265,31.12Zm0,9.67a3.023,3.023,0,1,1,2.681-3A2.856,2.856,0,0,1,1439.265,40.79Z" transform="translate(1247.907 1127.827)" fill="#888"/>
  </g>
</svg>
