<svg xmlns="http://www.w3.org/2000/svg" xmlns:xlink="http://www.w3.org/1999/xlink" width="96" height="21.388" viewBox="0 0 96 21.388">
  <defs>
    <clipPath id="clip-path">
      <rect id="사각형_118" data-name="사각형 118" width="96" height="21.388" transform="translate(0 0)" fill="none"/>
    </clipPath>
  </defs>
  <g id="그룹_152" data-name="그룹 152" transform="translate(0 0)">
    <g id="그룹_149" data-name="그룹 149" transform="translate(0 0)" clip-path="url(#clip-path)">
      <path id="패스_1081" data-name="패스 1081" d="M5.143,18.565c3.2,0,5.418,1.96,5.418,5.295v2.309c0,3.173-2.034,5.155-4.96,5.155a5.828,5.828,0,0,1-2.1-.4v4.105c0,.28-.137.42-.389.42H.412A.367.367,0,0,1,0,35.032V19.895a.411.411,0,0,1,.3-.443,14.638,14.638,0,0,1,4.846-.887m1.874,7.674V23.79c0-1.446-.709-2.052-1.943-2.052a4.672,4.672,0,0,0-1.577.256v5.831a3.137,3.137,0,0,0,1.6.4,1.731,1.731,0,0,0,1.92-1.983" transform="translate(0 -14.344)" fill="#17ac9d"/>
      <path id="패스_1082" data-name="패스 1082" d="M57.7,18.566c3.155,0,5.006,1.679,5.006,5.225v6.391a.45.45,0,0,1-.343.467,17.026,17.026,0,0,1-4.709.676c-3.292,0-5.372-1.26-5.372-4.012,0-2.426,1.874-3.638,4.983-3.638a15.852,15.852,0,0,1,1.943.14v-.233c0-1.237-.435-1.913-1.92-1.913a6.553,6.553,0,0,0-2.858.653.364.364,0,0,1-.548-.14l-.937-1.819c-.115-.233-.115-.4.045-.513A8.81,8.81,0,0,1,57.7,18.566m-.046,9.866a7.683,7.683,0,0,0,1.554-.186V26.193a8.679,8.679,0,0,0-1.577-.139c-1.257,0-1.806.42-1.806,1.166,0,.816.731,1.213,1.829,1.213" transform="translate(-40.397 -14.345)" fill="#17ac9d"/>
      <path id="패스_1083" data-name="패스 1083" d="M113.241,20.4a.371.371,0,0,1,.412-.4h2.7a.354.354,0,0,1,.389.4V30.964c0,4.058-1.669,5.878-5.418,5.878a7.141,7.141,0,0,1-4.549-1.283.362.362,0,0,1-.114-.56l1.211-1.89a.355.355,0,0,1,.526-.139,5.388,5.388,0,0,0,2.766.793c1.371,0,2.172-.536,2.149-2.262a7.489,7.489,0,0,1-2.08.327,4.647,4.647,0,0,1-4.869-4.992V20.4a.37.37,0,0,1,.412-.4h2.7a.353.353,0,0,1,.389.4v6.367a1.734,1.734,0,0,0,1.9,1.983,3.431,3.431,0,0,0,1.485-.327Z" transform="translate(-82.176 -15.454)" fill="#17ac9d"/>
      <path id="패스_1084" data-name="패스 1084" d="M167.088,16.98c-2.7,0-4.228-1.679-4.228-4.525V.42a.368.368,0,0,1,.411-.42h2.7c.251,0,.389.14.389.42V12.012c0,1.166.457,1.7,1.349,1.7.229,0,.48,0,.709-.023a.358.358,0,0,1,.434.4V16.42c0,.21-.091.4-.251.42a8.342,8.342,0,0,1-1.509.14" transform="translate(-125.83 0)" fill="#00203b"/>
      <path id="패스_1085" data-name="패스 1085" d="M204.668,25.773a.36.36,0,0,1-.412.4h-6.469v.373c0,1.19.754,1.8,1.966,1.8a5.534,5.534,0,0,0,2.9-.84.322.322,0,0,1,.526.094l1.189,1.609a.4.4,0,0,1-.069.583,7.29,7.29,0,0,1-4.663,1.539c-2.971,0-5.371-1.609-5.371-4.851V23.534c0-3.475,2.4-4.968,5.3-4.968,2.811,0,5.1,1.446,5.1,4.968Zm-5.12-4.244a1.62,1.62,0,0,0-1.76,1.843v.49h3.52v-.49a1.641,1.641,0,0,0-1.76-1.843" transform="translate(-150.096 -14.345)" fill="#00203b"/>
      <path id="패스_1086" data-name="패스 1086" d="M253.495,19.333c.206,0,.48-.023.731-.046.3-.047.435.07.435.35v2.286a.417.417,0,0,1-.32.466,8.37,8.37,0,0,1-1.44.117c-2.651,0-4.434-1.47-4.434-4.455V7.577a.36.36,0,0,1,.411-.4h2.378a.364.364,0,0,1,.411.373l.274,2.8H254a.37.37,0,0,1,.411.4v2.239a.37.37,0,0,1-.411.4h-2.035v4.221c0,1.143.525,1.726,1.531,1.726" transform="translate(-191.971 -5.548)" fill="#00203b"/>
      <path id="패스_1087" data-name="패스 1087" d="M287.3,19.333c.206,0,.48-.023.731-.046.3-.047.435.07.435.35v2.286a.418.418,0,0,1-.321.466,8.361,8.361,0,0,1-1.439.117c-2.652,0-4.435-1.47-4.435-4.455V7.577a.36.36,0,0,1,.412-.4h2.378a.365.365,0,0,1,.412.373l.274,2.8H287.8a.371.371,0,0,1,.411.4v2.239a.37.37,0,0,1-.411.4h-2.034v4.221c0,1.143.526,1.726,1.531,1.726" transform="translate(-218.087 -5.548)" fill="#00203b"/>
      <path id="패스_1088" data-name="패스 1088" d="M325.355,25.773a.361.361,0,0,1-.412.4h-6.469v.373c0,1.19.754,1.8,1.966,1.8a5.535,5.535,0,0,0,2.9-.84.322.322,0,0,1,.526.094l1.189,1.609a.4.4,0,0,1-.069.583,7.291,7.291,0,0,1-4.664,1.539c-2.971,0-5.371-1.609-5.371-4.851V23.534c0-3.475,2.4-4.968,5.3-4.968,2.812,0,5.1,1.446,5.1,4.968Zm-5.12-4.244a1.621,1.621,0,0,0-1.76,1.843v.49h3.52v-.49a1.641,1.641,0,0,0-1.76-1.843" transform="translate(-243.341 -14.345)" fill="#00203b"/>
      <path id="패스_1089" data-name="패스 1089" d="M369.564,31.021a.367.367,0,0,1-.412-.42V20.012a.529.529,0,0,1,.3-.49,9.449,9.449,0,0,1,4.206-.957,13.282,13.282,0,0,1,2.217.234.4.4,0,0,1,.366.443v2.146a.336.336,0,0,1-.434.373,9.606,9.606,0,0,0-1.417-.094,4.571,4.571,0,0,0-1.737.3V30.6c0,.28-.137.42-.389.42Z" transform="translate(-285.216 -14.345)" fill="#00203b"/>
      <path id="패스_1090" data-name="패스 1090" d="M407.493,54.805h-3.44c-.251,0-.389.14-.389.42V58.6c0,.28.137.42.389.42h3.44c.251,0,.389-.14.389-.42V55.225c0-.28-.137-.42-.389-.42" transform="translate(-311.882 -42.344)" fill="#17ac9d"/>
    </g>
  </g>
</svg>
