<svg xmlns="http://www.w3.org/2000/svg" width="99.229" height="28.663" viewBox="0 0 99.229 28.663">
  <g id="그룹_227" data-name="그룹 227" transform="translate(-3001.771 -1138)">
    <g id="그룹_225" data-name="그룹 225" transform="translate(3001.771 1138)">
      <path id="패스_1148" data-name="패스 1148" d="M62.359,198.3a13.586,13.586,0,0,1-1.448-6.64,13.951,13.951,0,0,1,6.79-11.774,14.307,14.307,0,1,1,9.454,26.344,13.929,13.929,0,0,1-11.73-3.739.7.7,0,0,1-.242-.824c1.1-3.887,2.161-7.786,3.272-11.67a7.062,7.062,0,0,1,13.686.628,6.751,6.751,0,0,1-2.556,6.968,6.82,6.82,0,0,1-7.429.824,1.853,1.853,0,0,0-2.511.609,1.774,1.774,0,0,0,.892,2.628,10.7,10.7,0,0,0,15.316-10.774,10.617,10.617,0,0,0-8.689-9.363A10.739,10.739,0,0,0,64.9,189.235c-.787,2.88-1.6,5.754-2.4,8.63C62.474,197.979,62.431,198.09,62.359,198.3Zm9.394-6.23a3.473,3.473,0,1,0,3.449-3.5A3.553,3.553,0,0,0,71.752,192.073Z" transform="translate(-60.897 -177.719)" fill="#e65038" fill-rule="evenodd"/>
    </g>
    <g id="그룹_226" data-name="그룹 226" transform="translate(-0.374 5.965)">
      <path id="패스_1149" data-name="패스 1149" d="M771.315,258.361a1.274,1.274,0,1,1-1.274-1.274A1.274,1.274,0,0,1,771.315,258.361Z" transform="translate(2330.059 889.103)" fill="#e35137"/>
      <path id="패스_1150" data-name="패스 1150" d="M264.667,211.825h-4.98a1.5,1.5,0,0,0-1.224,1.162l-2.7,10.085s-.018.077-.038.2l-.008.029a1.53,1.53,0,0,0,.734,1.971,1.353,1.353,0,0,0,1.439-.853c.01-.014.021-.026.031-.041l.025-.076a2.375,2.375,0,0,0,.132-.363l.05-.184.935-2.821,3.818-.124s3.776-.27,5.063-3.569C267.946,217.241,269.149,212.676,264.667,211.825Zm.508,4.648a2.63,2.63,0,0,1-2.019,2.044h-3.49a.031.031,0,0,1-.03-.039l1.12-4.036.062-.251a.031.031,0,0,1,.03-.024l2.957,0,.1,0a1.139,1.139,0,0,1,.911.387A2.767,2.767,0,0,1,265.175,216.473Z" transform="translate(2779.304 928.73)" fill="#c13e3e"/>
      <path id="패스_1151" data-name="패스 1151" d="M435.49,248.42a6.353,6.353,0,0,1-.92-.437,1.168,1.168,0,0,1-.4-1.546,1.1,1.1,0,0,1,1.473-.589,1.983,1.983,0,0,0,.815.131c.973-.151,1.2-.463,1.061-1.45q-.547-3.893-1.124-7.782a1.338,1.338,0,0,1,1.015-1.683c1.162-.152,1.678.223,1.781,1.317.161,1.7.309,3.409.469,5.112a4.626,4.626,0,0,0,.174.613c.495-.837.9-1.511,1.293-2.19.761-1.312,1.51-2.63,2.274-3.94a1.627,1.627,0,0,1,1.955-.911.951.951,0,0,1,.671,1.353,25.541,25.541,0,0,1-1.332,2.29c-1.49,2.389-2.994,4.769-4.492,7.154a5.263,5.263,0,0,1-3.278,2.557Z" transform="translate(2623.123 908.421)" fill="#c13e3e" fill-rule="evenodd"/>
      <path id="패스_1152" data-name="패스 1152" d="M359.545,244.148c-.522.321-.981.635-1.468.9a3.769,3.769,0,0,1-3.74-.455,3.234,3.234,0,0,1,.874-4.9,5.987,5.987,0,0,1,4.385-.458,1.05,1.05,0,0,1,.539.744c.071.43-.259.639-.688.683a10.257,10.257,0,0,0-2.084.276,1.357,1.357,0,0,0-.96,1.73,1.551,1.551,0,0,0,2.047.729,3.167,3.167,0,0,0,1.976-2.1c.225-.746.373-1.514.563-2.271.254-1.01-.2-1.616-1.417-1.769a9.019,9.019,0,0,0-2.045.186c-.258.028-.514.1-.771.1a1.069,1.069,0,0,1-1.054-.96,1.048,1.048,0,0,1,.725-1.171,9.659,9.659,0,0,1,4.874-.345,2.78,2.78,0,0,1,2.431,3.48c-.4,1.859-.9,3.7-1.413,5.531a1.52,1.52,0,0,1-1.7,1.195C359.89,245.262,359.722,244.726,359.545,244.148Z" transform="translate(2693.572 908.514)" fill="#c13e3e" fill-rule="evenodd"/>
      <path id="패스_1153" data-name="패스 1153" d="M604.175,235.472c.987-.1,1.338.8,1.1,1.676-.332,1.231-.722,2.447-1.049,3.679a4.127,4.127,0,0,0-.127,1.289,1.431,1.431,0,0,0,2,1.148,2.9,2.9,0,0,0,1.858-2.338c.414-1.45.8-2.909,1.222-4.356a1.348,1.348,0,0,1,1.263-1.106c1.135-.083,1.46.409,1.332,1.51a12.757,12.757,0,0,1-.471,1.882c-.523,1.9-1.036,3.8-1.588,5.688a1.475,1.475,0,0,1-1.447,1.176,1.042,1.042,0,0,1-1.152-.643c-.2-.506-.568-.349-.768-.156a3.673,3.673,0,0,1-2.741.824,2.61,2.61,0,0,1-2.459-2.559,21.12,21.12,0,0,1,.5-2.926c.318-1.3.7-2.582,1.113-3.854A1.271,1.271,0,0,1,604.175,235.472Z" transform="translate(2476.815 908.041)" fill="#e35137" fill-rule="evenodd"/>
      <path id="패스_1154" data-name="패스 1154" d="M544.064,217.064c.383.034.694.074,1.006.088a1.146,1.146,0,0,1,1.161,1.123,1,1,0,0,1-1.113,1.065c-.2.006-.391,0-.587,0-1,0-1.217.211-1.441,1.182-.263,1.136-.6,2.255-.87,3.39-.171.72.111,1.124.806,1.177.534.04.987.1,1.059.771a1.151,1.151,0,0,1-.826,1.359,4.53,4.53,0,0,1-3.219-.239,1.672,1.672,0,0,1-.816-1.867c.153-.98.437-1.941.682-2.905.181-.712.4-1.414.58-2.126a.632.632,0,0,0-.376-.845.984.984,0,0,1-.473-1.265.891.891,0,0,1,.93-.8.732.732,0,0,0,.867-.721,4.434,4.434,0,0,1,.432-1.286,1.651,1.651,0,0,1,1.942-.586c.686.276.578.893.529,1.447A6.992,6.992,0,0,1,544.064,217.064Z" transform="translate(2531.054 926.41)" fill="#e35137" fill-rule="evenodd"/>
      <path id="패스_1155" data-name="패스 1155" d="M692.787,247.752a5.477,5.477,0,0,1-3.717-1.21,1.082,1.082,0,0,1-.214-1.6,1.317,1.317,0,0,1,1.631-.045,4.379,4.379,0,0,0,2.2.929,1.95,1.95,0,0,0,1.338-.331c.56-.376.185-1.173-.6-1.522a10.625,10.625,0,0,1-2.165-1.16,2.745,2.745,0,0,1,.013-4.191,4.442,4.442,0,0,1,3.493-.923,5.443,5.443,0,0,1,2.693.873,1.2,1.2,0,0,1,.3,1.559,1.142,1.142,0,0,1-1.413.261,4.373,4.373,0,0,0-2.4-.819,1.559,1.559,0,0,0-1,.648c-.254.409.027.766.471.983.7.343,1.382.731,2.075,1.092a2.724,2.724,0,0,1,.374,4.535A4.46,4.46,0,0,1,692.787,247.752Z" transform="translate(2400.248 906.108)" fill="#e35137" fill-rule="evenodd"/>
    </g>
  </g>
</svg>
