<svg xmlns="http://www.w3.org/2000/svg" width="107.539" height="24.4" viewBox="0 0 107.539 24.4">
  <g id="그룹_260" data-name="그룹 260" transform="translate(-1980.99 -505.947)">
    <g id="그룹_238" data-name="그룹 238" transform="translate(2005.554 505.947)">
      <path id="패스_1176" data-name="패스 1176" d="M2115.322,537.109h1.779v-1.652h3V534.3h-7.781v1.157h3Z" transform="translate(-2112.32 -528.998)" fill="#888"/>
      <path id="패스_1177" data-name="패스 1177" d="M2130.146,554.718h8.108v-3.081h-9.887v1.2h8.109v.677h-8.109v1.866a1.11,1.11,0,0,0,.368.938,1.552,1.552,0,0,0,.969.277h8.882v-1.2h-8.44Z" transform="translate(-2125.366 -543.091)" fill="#888"/>
      <path id="패스_1178" data-name="패스 1178" d="M2142.374,516.627h4.448v-7.521h-1.7v6.409h-2.753Z" transform="translate(-2136.753 -508.516)" fill="#888"/>
      <rect id="사각형_159" data-name="사각형 159" width="1.696" height="7.521" transform="translate(11.193 0.591)" fill="#888"/>
      <path id="패스_1179" data-name="패스 1179" d="M2116.645,512.183a3.961,3.961,0,0,0,2.394.594,4.135,4.135,0,0,0,2.409-.593,1.892,1.892,0,0,0,.852-1.607,1.933,1.933,0,0,0-.854-1.608,4.288,4.288,0,0,0-2.407-.592,4.1,4.1,0,0,0-2.391.593,1.92,1.92,0,0,0,0,3.213Zm1.178-2.337a1.859,1.859,0,0,1,1.216-.326,1.886,1.886,0,0,1,1.214.324.965.965,0,0,1,.367.734.946.946,0,0,1-.367.734,1.777,1.777,0,0,1-1.214.324,1.752,1.752,0,0,1-1.216-.326.944.944,0,0,1-.365-.732A.962.962,0,0,1,2117.823,509.846Z" transform="translate(-2115.131 -507.923)" fill="#888"/>
      <path id="패스_1180" data-name="패스 1180" d="M2202.478,554.328a1.109,1.109,0,0,0,.368.938,1.553,1.553,0,0,0,.969.277h8.119v-5.2h-9.456Zm1.779-2.755h5.9v2.737h-5.9Z" transform="translate(-2185.615 -542.038)" fill="#888"/>
      <path id="패스_1181" data-name="패스 1181" d="M2201.237,512.167h-2.924a6.356,6.356,0,0,0,.342-2.119v-.775h-6.886v1.233h5.1c-.018.29-.047.547-.075.779a5.249,5.249,0,0,1-.22.73h-5.055v1.233h4.307a5.445,5.445,0,0,1-1.784,1.368,10.364,10.364,0,0,1-2.4.856l-.135.03.694,1.015.062-.014a11.762,11.762,0,0,0,3.19-1.16,5.993,5.993,0,0,0,2.212-1.944h3.571v2.879h1.779v-7.172h-1.779Z" transform="translate(-2176.697 -508.515)" fill="#888"/>
      <path id="패스_1182" data-name="패스 1182" d="M2268.006,512.04h1v-1.232h-6.787v1.232h1v6.707h-1.161v1.233h7.118v-1.233h-1.161Zm-1.712,6.707h-1.372V512.04h1.372Z" transform="translate(-2234.044 -509.899)" fill="#888"/>
      <path id="패스_1183" data-name="패스 1183" d="M2297.484,513.3h-1.658v1.233h1.658v7.409h1.7V509.107h-1.7Z" transform="translate(-2261.504 -508.516)" fill="#888"/>
      <rect id="사각형_160" data-name="사각형 160" width="1.696" height="12.915" transform="translate(39.048 0.591)" fill="#888"/>
      <rect id="사각형_161" data-name="사각형 161" width="1.779" height="12.915" transform="translate(52.727 0.591)" fill="#888"/>
      <path id="패스_1184" data-name="패스 1184" d="M2347.849,511.131a3.711,3.711,0,0,0-1.311-.855,4.606,4.606,0,0,0-1.607-.278,4.534,4.534,0,0,0-1.607.278,3.409,3.409,0,0,0-1.3.858,4.17,4.17,0,0,0-.866,1.489,6.791,6.791,0,0,0-.3,2.135,6.555,6.555,0,0,0,.3,2.12,3.7,3.7,0,0,0,.865,1.487,3.111,3.111,0,0,0,1.3.874,4.536,4.536,0,0,0,1.608.279,4.606,4.606,0,0,0,1.608-.279,3.366,3.366,0,0,0,1.312-.871,3.873,3.873,0,0,0,.85-1.489,6.562,6.562,0,0,0,.3-2.121,6.79,6.79,0,0,0-.3-2.137A4.388,4.388,0,0,0,2347.849,511.131Zm-.8,5.3a3.476,3.476,0,0,1-.5,1.088,1.9,1.9,0,0,1-.729.58,2.07,2.07,0,0,1-.89.189,2.034,2.034,0,0,1-.893-.19,1.689,1.689,0,0,1-.727-.58,2.618,2.618,0,0,1-.5-1.087,6.011,6.011,0,0,1-.2-1.671,6.309,6.309,0,0,1,.2-1.689,2.759,2.759,0,0,1,.5-1.072,1.971,1.971,0,0,1,.726-.593,2.246,2.246,0,0,1,.892-.174,2.3,2.3,0,0,1,.888.172,2.273,2.273,0,0,1,.727.59,3.712,3.712,0,0,1,.5,1.076,7.108,7.108,0,0,1,.18,1.69A6.867,6.867,0,0,1,2347.046,516.43Z" transform="translate(-2298.113 -509.24)" fill="#888"/>
      <path id="패스_1185" data-name="패스 1185" d="M2429.425,553.5h-1.779v3.4a1.109,1.109,0,0,0,.368.938,1.553,1.553,0,0,0,.969.277h8.451v-1.233h-8.009Z" transform="translate(-2368.668 -544.606)" fill="#888"/>
      <path id="패스_1186" data-name="패스 1186" d="M2424.568,513.248h2.25v5.758h1.779v-9.9h-1.779v2.909h-2.25v-2.742h-7.383v5.639a1.05,1.05,0,0,0,.365.92,1.45,1.45,0,0,0,.972.295h6.046Zm-1.779,1.646h-3.842v-4.389h3.842Z" transform="translate(-2360.164 -508.515)" fill="#888"/>
      <path id="패스_1187" data-name="패스 1187" d="M2494.106,514.3a9.1,9.1,0,0,0,2.781-1.1,5.45,5.45,0,0,0,1.925-1.92,4.636,4.636,0,0,0,.795,1.011,5.2,5.2,0,0,0,1.142.906,6.477,6.477,0,0,0,1.329.677,7.873,7.873,0,0,0,1.46.429l.068.013.584-1.139-.118-.027a7.633,7.633,0,0,1-2.017-.719,4.023,4.023,0,0,1-1.317-1.026,3.534,3.534,0,0,1-.76-1.285,5.172,5.172,0,0,1-.273-1.422h3.81v-1.232H2499.7v-1.515h-1.779v1.515h-3.979v1.232h3.957a6.366,6.366,0,0,1-.254,1.422,4.023,4.023,0,0,1-.744,1.286,4.853,4.853,0,0,1-1.317,1.025,8.088,8.088,0,0,1-2.016.718l-.117.027.585,1.141Z" transform="translate(-2422.165 -505.947)" fill="#888"/>
      <rect id="사각형_162" data-name="사각형 162" width="12.839" height="1.233" transform="translate(70.137 9.849)" fill="#888"/>
    </g>
    <path id="패스_1188" data-name="패스 1188" d="M2023.5,513.389a4.2,4.2,0,0,1,1.127.013,4.646,4.646,0,1,1-5.035,3.951l-3.542-.519a7.6,7.6,0,1,0,7.23-6.7Z" transform="translate(-28.458 -3.395)" fill="#888"/>
    <path id="패스_1189" data-name="패스 1189" d="M1992.911,517.177a4.213,4.213,0,0,1,.151,1.118,4.646,4.646,0,1,1-4.64-4.409v-3.58a7.6,7.6,0,1,0,7.682,6.18Z" transform="translate(0 -3.544)" fill="#888"/>
    <g id="그룹_240" data-name="그룹 240" transform="translate(2010.546 523.32)">
      <g id="그룹_239" data-name="그룹 239" transform="translate(0)">
        <path id="패스_1190" data-name="패스 1190" d="M2140.446,604.222l-1.434-5.388h.765l1.16,4.5,1.394-4.5h.806l1.394,4.52,1.16-4.52h.765l-1.434,5.388h-.959l-1.329-4.285-1.329,4.285Z" transform="translate(-2139.012 -598.834)" fill="#888"/>
        <path id="패스_1191" data-name="패스 1191" d="M2180.066,608.883a1.341,1.341,0,0,0,.149.551,1.089,1.089,0,0,0,.326.371,1.423,1.423,0,0,0,.459.213,2.09,2.09,0,0,0,.548.07,4.171,4.171,0,0,0,.419-.018,1.9,1.9,0,0,0,.33-.062,1.852,1.852,0,0,0,.29-.11,2.437,2.437,0,0,0,.281-.162l.3.478a2.107,2.107,0,0,1-.753.382,3.307,3.307,0,0,1-.866.11,2.819,2.819,0,0,1-.91-.14,2,2,0,0,1-.7-.4,1.8,1.8,0,0,1-.451-.632,2.07,2.07,0,0,1-.161-.834,2.221,2.221,0,0,1,.149-.834,1.829,1.829,0,0,1,.415-.632,1.8,1.8,0,0,1,.636-.4,2.318,2.318,0,0,1,.822-.14,2.26,2.26,0,0,1,.866.154,1.643,1.643,0,0,1,.624.441,1.754,1.754,0,0,1,.363.691,2.734,2.734,0,0,1,.081.9Zm1.281-1.573a1.292,1.292,0,0,0-.854.268,1.235,1.235,0,0,0-.411.761h2.465a1.149,1.149,0,0,0-.375-.768A1.241,1.241,0,0,0,2181.347,607.311Z" transform="translate(-2171.785 -605.223)" fill="#888"/>
        <path id="패스_1192" data-name="패스 1192" d="M2204.952,598.834h.733v5.388h-.733Z" transform="translate(-2192.619 -598.834)" fill="#888"/>
        <path id="패스_1193" data-name="패스 1193" d="M2216.617,607.495a1.452,1.452,0,0,0-.258-.107,1.7,1.7,0,0,0-.278-.059,2.734,2.734,0,0,0-.338-.018,1.843,1.843,0,0,0-.584.092,1.423,1.423,0,0,0-.488.272,1.31,1.31,0,0,0-.459,1.025,1.363,1.363,0,0,0,.121.588,1.255,1.255,0,0,0,.33.434,1.447,1.447,0,0,0,.491.268,1.936,1.936,0,0,0,.6.092,2.35,2.35,0,0,0,.685-.085,2.509,2.509,0,0,0,.564-.261l.306.5a2.29,2.29,0,0,1-.648.338,2.837,2.837,0,0,1-.906.125,2.8,2.8,0,0,1-.9-.139,2.2,2.2,0,0,1-.721-.4,1.847,1.847,0,0,1-.483-.628,1.908,1.908,0,0,1-.177-.834,1.875,1.875,0,0,1,.181-.834,1.937,1.937,0,0,1,.488-.632,2.163,2.163,0,0,1,.721-.4,2.727,2.727,0,0,1,.875-.14,2.969,2.969,0,0,1,.491.037,2.35,2.35,0,0,1,.395.1,1.888,1.888,0,0,1,.322.147q.145.084.282.18l-.347.5Q2216.742,607.561,2216.617,607.495Z" transform="translate(-2199.551 -605.223)" fill="#888"/>
        <path id="패스_1194" data-name="패스 1194" d="M2240.638,608.7a1.986,1.986,0,0,1-.173.849,1.86,1.86,0,0,1-.471.628,2.084,2.084,0,0,1-.7.393,2.723,2.723,0,0,1-1.7,0,2.078,2.078,0,0,1-.7-.393,1.806,1.806,0,0,1-.467-.628,2.2,2.2,0,0,1,0-1.694,1.8,1.8,0,0,1,.467-.632,2.079,2.079,0,0,1,.7-.393,2.719,2.719,0,0,1,1.7,0,2.085,2.085,0,0,1,.7.393,1.852,1.852,0,0,1,.471.632A1.994,1.994,0,0,1,2240.638,608.7Zm-.733,0a1.514,1.514,0,0,0-.109-.6,1.22,1.22,0,0,0-.3-.434,1.3,1.3,0,0,0-.459-.268,1.927,1.927,0,0,0-1.176,0,1.308,1.308,0,0,0-.459.268,1.177,1.177,0,0,0-.3.434,1.748,1.748,0,0,0,0,1.191,1.178,1.178,0,0,0,.3.434,1.306,1.306,0,0,0,.459.268,1.924,1.924,0,0,0,1.176,0,1.3,1.3,0,0,0,.459-.268,1.221,1.221,0,0,0,.3-.434A1.514,1.514,0,0,0,2239.905,608.7Z" transform="translate(-2218.074 -605.223)" fill="#888"/>
        <path id="패스_1195" data-name="패스 1195" d="M2266.533,608.193a.935.935,0,0,0-.206-.673.827.827,0,0,0-.616-.209,1.211,1.211,0,0,0-.668.191,2,2,0,0,0-.524.492v2.617h-.733V606.73h.733v.5a1.842,1.842,0,0,1,.588-.4,1.908,1.908,0,0,1,.749-.14,1.613,1.613,0,0,1,.8.173,1.053,1.053,0,0,1,.447.5,1.733,1.733,0,0,1,.633-.5,1.946,1.946,0,0,1,.825-.169,1.314,1.314,0,0,1,1.088.4,1.71,1.71,0,0,1,.322,1.1v2.418h-.733v-2.418a.935.935,0,0,0-.205-.673.828.828,0,0,0-.616-.209,1.211,1.211,0,0,0-.653.18,1.994,1.994,0,0,0-.516.467c.005.039.009.078.012.118s0,.078,0,.117v2.418h-.733Z" transform="translate(-2240.448 -605.223)" fill="#888"/>
        <path id="패스_1196" data-name="패스 1196" d="M2301.568,608.883a1.345,1.345,0,0,0,.149.551,1.089,1.089,0,0,0,.326.371,1.423,1.423,0,0,0,.459.213,2.089,2.089,0,0,0,.548.07,4.166,4.166,0,0,0,.419-.018,1.909,1.909,0,0,0,.33-.062,1.852,1.852,0,0,0,.29-.11,2.439,2.439,0,0,0,.282-.162l.3.478a2.107,2.107,0,0,1-.753.382,3.306,3.306,0,0,1-.866.11,2.82,2.82,0,0,1-.91-.14,2,2,0,0,1-.7-.4,1.8,1.8,0,0,1-.451-.632,2.074,2.074,0,0,1-.161-.834,2.221,2.221,0,0,1,.149-.834,1.829,1.829,0,0,1,.415-.632,1.8,1.8,0,0,1,.636-.4,2.317,2.317,0,0,1,.822-.14,2.259,2.259,0,0,1,.866.154,1.643,1.643,0,0,1,.624.441,1.75,1.75,0,0,1,.363.691,2.715,2.715,0,0,1,.081.9Zm1.281-1.573a1.292,1.292,0,0,0-.854.268,1.233,1.233,0,0,0-.411.761h2.465a1.149,1.149,0,0,0-.375-.768A1.24,1.24,0,0,0,2302.849,607.311Z" transform="translate(-2270.561 -605.223)" fill="#888"/>
        <path id="패스_1197" data-name="패스 1197" d="M2338.8,600.481a1.787,1.787,0,0,1-.113.617,1.625,1.625,0,0,1-.343.555,1.8,1.8,0,0,1-.572.4,1.894,1.894,0,0,1-.8.158H2335.5v2.007h-.733v-5.388h2.191a2.148,2.148,0,0,1,.806.14,1.687,1.687,0,0,1,.576.371,1.561,1.561,0,0,1,.347.526A1.644,1.644,0,0,1,2338.8,600.481Zm-2.127,1.117a2.441,2.441,0,0,0,.552-.059,1.352,1.352,0,0,0,.443-.184.856.856,0,0,0,.294-.331,1.091,1.091,0,0,0,.1-.5,1.127,1.127,0,0,0-.1-.5.85.85,0,0,0-.282-.331,1.268,1.268,0,0,0-.439-.184,2.59,2.59,0,0,0-.572-.059H2335.5V601.6Z" transform="translate(-2298.153 -598.834)" fill="#888"/>
        <path id="패스_1198" data-name="패스 1198" d="M2362.307,610.611h-.733v-.544a1.611,1.611,0,0,1-.648.474,2.22,2.22,0,0,1-.858.165,1.791,1.791,0,0,1-.5-.07,1.4,1.4,0,0,1-.431-.206,1.077,1.077,0,0,1-.306-.338.931.931,0,0,1-.117-.474,1.082,1.082,0,0,1,.206-.665,1.507,1.507,0,0,1,.556-.448,3.018,3.018,0,0,1,.81-.254,5.578,5.578,0,0,1,.967-.081h.322v-.037a.7.7,0,0,0-.3-.617,1.3,1.3,0,0,0-.757-.206,2.13,2.13,0,0,0-.636.088,3.418,3.418,0,0,0-.516.206l-.306-.536a3.364,3.364,0,0,1,.721-.272,3.324,3.324,0,0,1,.834-.1,2.661,2.661,0,0,1,.7.085,1.428,1.428,0,0,1,.532.265,1.179,1.179,0,0,1,.343.467,1.776,1.776,0,0,1,.121.691Zm-2.1-.485a1.466,1.466,0,0,0,.411-.059,1.8,1.8,0,0,0,.383-.162,1.734,1.734,0,0,0,.33-.242,1.4,1.4,0,0,0,.246-.3v-.632h-.363a4.712,4.712,0,0,0-.648.044,2.39,2.39,0,0,0-.564.143,1.174,1.174,0,0,0-.4.254.522.522,0,0,0-.153.382.491.491,0,0,0,.2.434A.963.963,0,0,0,2360.2,610.126Z" transform="translate(-2317.621 -605.223)" fill="#888"/>
        <path id="패스_1199" data-name="패스 1199" d="M2380.719,606.654l1.378,3.058,1.273-3.058h.773l-2.006,4.69a1.764,1.764,0,0,1-.266.448,1.182,1.182,0,0,1-.314.265,1.122,1.122,0,0,1-.363.129,2.376,2.376,0,0,1-.4.033,2.445,2.445,0,0,1-.375-.029,2.059,2.059,0,0,1-.391-.1l.089-.581a2.25,2.25,0,0,0,.395.081q.161.015.29.015a.8.8,0,0,0,.419-.107.938.938,0,0,0,.322-.452l.2-.478-1.8-3.91Z" transform="translate(-2334.882 -605.191)" fill="#888"/>
        <path id="패스_1200" data-name="패스 1200" d="M2407.8,608.193a.934.934,0,0,0-.205-.673.828.828,0,0,0-.616-.209,1.212,1.212,0,0,0-.668.191,2,2,0,0,0-.523.492v2.617h-.733V606.73h.733v.5a1.84,1.84,0,0,1,.588-.4,1.909,1.909,0,0,1,.749-.14,1.612,1.612,0,0,1,.8.173,1.053,1.053,0,0,1,.447.5,1.735,1.735,0,0,1,.633-.5,1.946,1.946,0,0,1,.825-.169,1.315,1.315,0,0,1,1.088.4,1.712,1.712,0,0,1,.322,1.1v2.418h-.733v-2.418a.934.934,0,0,0-.205-.673.828.828,0,0,0-.616-.209,1.21,1.21,0,0,0-.653.18,2,2,0,0,0-.516.467c.005.039.01.078.012.118s0,.078,0,.117v2.418h-.733Z" transform="translate(-2355.296 -605.223)" fill="#888"/>
        <path id="패스_1201" data-name="패스 1201" d="M2442.838,608.883a1.341,1.341,0,0,0,.149.551,1.089,1.089,0,0,0,.326.371,1.423,1.423,0,0,0,.459.213,2.085,2.085,0,0,0,.547.07,4.164,4.164,0,0,0,.419-.018,1.909,1.909,0,0,0,.33-.062,1.861,1.861,0,0,0,.29-.11,2.439,2.439,0,0,0,.282-.162l.3.478a2.107,2.107,0,0,1-.754.382,3.306,3.306,0,0,1-.866.11,2.818,2.818,0,0,1-.91-.14,2,2,0,0,1-.7-.4,1.809,1.809,0,0,1-.451-.632,2.078,2.078,0,0,1-.161-.834,2.221,2.221,0,0,1,.149-.834,1.829,1.829,0,0,1,.415-.632,1.808,1.808,0,0,1,.636-.4,2.318,2.318,0,0,1,.822-.14,2.261,2.261,0,0,1,.866.154,1.643,1.643,0,0,1,.624.441,1.754,1.754,0,0,1,.363.691,2.728,2.728,0,0,1,.081.9Zm1.281-1.573a1.292,1.292,0,0,0-.854.268,1.232,1.232,0,0,0-.411.761h2.465a1.148,1.148,0,0,0-.375-.768A1.241,1.241,0,0,0,2444.119,607.311Z" transform="translate(-2385.409 -605.223)" fill="#888"/>
        <path id="패스_1202" data-name="패스 1202" d="M2470.427,608.193a.934.934,0,0,0-.205-.673.828.828,0,0,0-.616-.209,1.214,1.214,0,0,0-.459.088,1.5,1.5,0,0,0-.4.239,2.045,2.045,0,0,0-.331.349,2.7,2.7,0,0,0-.262.426v2.2h-.733V606.73h.733v.83a1.943,1.943,0,0,1,.669-.643,1.844,1.844,0,0,1,.927-.224,1.314,1.314,0,0,1,1.088.4,1.712,1.712,0,0,1,.322,1.1v2.418h-.733Z" transform="translate(-2405.997 -605.223)" fill="#888"/>
        <path id="패스_1203" data-name="패스 1203" d="M2492.683,602.117v.617h-.991v1.918a1.455,1.455,0,0,0,.044.4.565.565,0,0,0,.121.228.348.348,0,0,0,.194.1,1.41,1.41,0,0,0,.262.022c.059,0,.121,0,.185-.007s.126-.012.185-.022v.61a1.79,1.79,0,0,1-.221.029q-.109.007-.205.007a3.026,3.026,0,0,1-.431-.033.994.994,0,0,1-.423-.165.972.972,0,0,1-.318-.39,1.659,1.659,0,0,1-.125-.713v-1.992h-.838v-.617h.838v-1.161h.733v1.161Z" transform="translate(-2424.45 -600.559)" fill="#888"/>
        <path id="패스_1204" data-name="패스 1204" d="M2505.445,609.721a4.886,4.886,0,0,0,.56.272,1.724,1.724,0,0,0,.665.125,1.268,1.268,0,0,0,.612-.125.4.4,0,0,0,.226-.367.365.365,0,0,0-.052-.195.571.571,0,0,0-.165-.162,1.572,1.572,0,0,0-.294-.151l-.431-.176q-.217-.088-.463-.184a2.243,2.243,0,0,1-.447-.232,1.285,1.285,0,0,1-.334-.323.76.76,0,0,1-.133-.452.877.877,0,0,1,.431-.783,2.124,2.124,0,0,1,1.156-.276,2.7,2.7,0,0,1,.914.151,2.254,2.254,0,0,1,.29.125,1.428,1.428,0,0,1,.165.1l-.29.522a2.173,2.173,0,0,0-.472-.213,1.975,1.975,0,0,0-.616-.088,1.24,1.24,0,0,0-.64.128.389.389,0,0,0-.205.342.289.289,0,0,0,.073.195.838.838,0,0,0,.2.162,2.045,2.045,0,0,0,.294.147q.169.07.354.143.266.1.516.213a2.724,2.724,0,0,1,.447.246,1.166,1.166,0,0,1,.318.32.771.771,0,0,1,.121.434.859.859,0,0,1-.109.419,1.1,1.1,0,0,1-.31.349,1.529,1.529,0,0,1-.488.235,2.285,2.285,0,0,1-.648.085,2.79,2.79,0,0,1-.592-.059,3.605,3.605,0,0,1-.479-.136,2.092,2.092,0,0,1-.351-.162,2.239,2.239,0,0,1-.2-.128Z" transform="translate(-2436.6 -605.223)" fill="#888"/>
      </g>
    </g>
  </g>
</svg>
