<svg version="1.2" xmlns="http://www.w3.org/2000/svg" viewBox="0 0 372 59" width="372" height="59"><defs><clipPath clipPathUnits="userSpaceOnUse" id="cp1"><path d="m-260-74h1920v1080h-1920z"/></clipPath><clipPath clipPathUnits="userSpaceOnUse" id="cp2"><path d="m-81-74h452.82v184.98h-452.82z"/></clipPath></defs><style>.a{fill:#fff}</style><g clip-path="url(#cp1)"><g clip-path="url(#cp2)"><path fill-rule="evenodd" class="a" d="m58.7 29.7c0 16-13 28.9-28.9 28.9-16 0-28.9-12.9-28.9-28.9 0-15.9 12.9-28.9 28.9-28.9 15.9 0 28.9 13 28.9 28.9zm-32.2-4.3c0-3.3-2-6.1-6.6-6.1h-10.5v3.6h10.7q0.2 0 0.4 0c1.4 0.1 2.5 1.3 2.4 2.7q0 0.2 0 0.4c-0.1 1.5-1.4 2.5-2.9 2.4h-7.3c-2.3 0-3.3 1-3.3 3.3v8.1h3.6v-7.4q0-0.1 0-0.1c0.1-0.3 0.3-0.5 0.5-0.4h6.4c4.8 0 6.6-3.4 6.6-6.5zm23.7-6.1h-4l-6.5 16.5c-0.2 0.4-0.6 0.7-1 0.7-0.5 0-0.9-0.3-1-0.7l-6.3-16.5h-3.9l6.9 18.2c0.7 2 2.3 2.6 4.3 2.6 2.1 0 3.5-0.7 4.3-2.6z"/><path class="a" d="m95 8.5h-21.8v7.4h22.1c4 0 5.8 2.6 5.8 5.7 0 2.9-1.7 5.8-5.9 5.8h-15.3c-4.7 0-6.7 2-6.7 6.8v16.8h7.5v-15.4q-0.1-0.1 0-0.3c0-0.5 0.5-0.8 1-0.8h13.3c9.9 0 13.6-6.9 13.6-13.3 0-6.8-4.1-12.7-13.6-12.7z"/><path class="a" d="m131.4 7.7c-4.5 0-7.4 1.5-9 5.5l-14.9 37.8h8.2l13.5-34.2c0.3-0.9 1.2-1.5 2.1-1.5 1 0 1.8 0.6 2.1 1.5l12.9 34.2h8.3l-14.4-37.8c-1.5-4-4.4-5.5-8.8-5.5z"/><path class="a" d="m171.3 26.7l-11.9-18.2h-9l17.1 24.1v18.4h7.5v-18.4l17.1-24.1h-8.8z"/><path class="a" d="m220.7 42.7c-0.3 0.9-1.1 1.5-2.1 1.4-0.9 0.1-1.8-0.5-2.1-1.4l-12.9-34.2h-8.2l14.3 37.8c1.5 4.1 4.8 5.4 8.9 5.4 4.4 0 7.3-1.5 8.9-5.4l15-37.8h-8.3z"/><path class="a" d="m254.9 38.2c0-3.5 2.2-5.2 6.4-5.2h21.2v-6.7h-21c-4.2 0-6.5-1.6-6.5-5.1 0-3.2 2-5.3 6.5-5.3h21.3v-7.4h-21.3c-10 0-14.3 4.7-14.3 11.5 0 4.7 2 8 6 9.6-3.9 1.7-6.1 4.9-6.1 9.8 0 6.6 4.1 11.6 14.2 11.6h21.5v-7.4h-21.5c-4.4 0-6.4-2.1-6.4-5.4z"/><path class="a" d="m329.1 21.2c0-6.8-4.1-12.7-13.7-12.7h-23.1v7.4h23.4c4.1 0 5.9 2.6 5.9 5.6 0 3-1.7 5.9-5.9 5.9h-16.6c-4.7 0-6.7 2-6.7 6.8v16.8h7.4v-15.4q0-0.1 0-0.3c0.1-0.5 0.6-0.8 1.1-0.8h11.1l9.7 16.5h8.3l-9.9-17c6.5-1.9 9-7.5 9-12.8z"/><path class="a" d="m363 8.5l-12 18.2-12-18.2h-9l17.2 24.2v18.3h7.5v-18.3l17.1-24.2z"/></g></g></svg>